<svg width="59" height="59" viewBox="0 0 59 59" fill="none" xmlns="http://www.w3.org/2000/svg">
<circle cx="29.5" cy="29.5" r="29" fill="black" stroke="#E0E0E9"/>
<path d="M38.4346 35.4756C38.1149 36.2142 37.7365 36.8941 37.298 37.5192C36.7003 38.3714 36.2109 38.9612 35.8338 39.2888C35.2492 39.8264 34.6228 40.1018 33.952 40.1174C33.4705 40.1174 32.8898 39.9804 32.2138 39.7025C31.5356 39.4258 30.9123 39.2888 30.3424 39.2888C29.7447 39.2888 29.1037 39.4258 28.4181 39.7025C27.7314 39.9804 27.1782 40.1253 26.7553 40.1396C26.112 40.167 25.4709 39.8839 24.8309 39.2888C24.4225 38.9325 23.9116 38.3218 23.2995 37.4566C22.6429 36.5326 22.103 35.4612 21.68 34.2398C21.2271 32.9204 21 31.6429 21 30.406C21 28.9892 21.3062 27.7672 21.9194 26.7431C22.4013 25.9206 23.0424 25.2718 23.8449 24.7955C24.6473 24.3191 25.5143 24.0764 26.4481 24.0609C26.959 24.0609 27.629 24.2189 28.4615 24.5295C29.2918 24.8411 29.8249 24.9992 30.0586 24.9992C30.2333 24.9992 30.8255 24.8144 31.8294 24.446C32.7788 24.1043 33.5801 23.9629 34.2365 24.0186C36.0152 24.1621 37.3515 24.8633 38.2402 26.1265C36.6494 27.0904 35.8625 28.4404 35.8782 30.1723C35.8925 31.5212 36.3819 32.6438 37.3437 33.5351C37.7795 33.9488 38.2663 34.2685 38.8079 34.4956C38.6904 34.8362 38.5665 35.1624 38.4346 35.4756V35.4756ZM34.3553 19.4229C34.3553 20.4803 33.969 21.4675 33.199 22.3812C32.2699 23.4675 31.146 24.0952 29.9273 23.9961C29.9118 23.8693 29.9028 23.7358 29.9028 23.5955C29.9028 22.5805 30.3446 21.4942 31.1293 20.6061C31.5211 20.1564 32.0193 19.7824 32.6235 19.4842C33.2264 19.1903 33.7967 19.0278 34.3331 19C34.3487 19.1413 34.3553 19.2827 34.3553 19.4229V19.4229Z" fill="white"/>
</svg>
