<svg width="40" height="40" viewBox="0 0 40 40" fill="none" xmlns="http://www.w3.org/2000/svg">
<g clip-path="url(#clip0_80_1273)">
<path d="M1.76532 17.869C3.1141 7.61059 12.5235 0.387853 22.7819 1.73658C33.0403 3.08536 40.263 12.4948 38.9144 22.7532C37.5656 33.0117 28.1562 40.2343 17.8978 38.8856C7.63928 37.5369 0.416588 28.1275 1.76532 17.869Z" fill="#FBB040" stroke="#FDFCFF" stroke-width="1.37931"/>
<mask id="mask0_80_1273" style="mask-type:luminance" maskUnits="userSpaceOnUse" x="2" y="2" width="37" height="37">
<path d="M38.2306 22.6634C39.5297 12.7825 32.5728 3.71941 22.6919 2.42033C12.8111 1.12124 3.74796 8.07814 2.44888 17.959C1.1498 27.8398 8.10669 36.903 17.9875 38.2021C27.8684 39.5011 36.9315 32.5442 38.2306 22.6634Z" fill="white"/>
</mask>
<g mask="url(#mask0_80_1273)">
<path d="M24.4069 25.8638H17.4966V30.5189H24.4069V25.8638Z" fill="#FBBCA0"/>
<g style="mix-blend-mode:multiply">
<path d="M19.1761 29.2327C20.2175 29.6465 21.3589 29.8948 22.4796 29.9051C23.1209 29.912 23.7761 29.8293 24.4106 29.7189V25.8672H17.5002V28.2741C17.9865 28.7017 18.6037 29.0051 19.1761 29.2327Z" fill="#E6E7E8"/>
</g>
<path d="M28.4347 17.1018C28.4588 16.9294 28.7485 16.6501 28.876 16.557C29.1588 16.3466 29.445 16.5638 29.5278 16.8363C29.6002 17.0811 29.6071 17.357 29.6278 17.6087C29.6692 18.2259 29.576 18.8328 29.3002 19.3914C29.114 19.7638 28.8243 20.0707 28.4795 20.3018C28.4795 20.3018 28.1071 20.488 28.0347 20.0604L28.4381 17.1018H28.4347Z" fill="#FBBCA0"/>
<path d="M28.3763 17.4742C28.3936 17.35 28.6005 17.1535 28.6936 17.0845C28.897 16.9362 29.1005 17.0879 29.1591 17.2845C29.2108 17.4604 29.2177 17.6569 29.228 17.8362C29.2591 18.2776 29.1936 18.7121 28.9936 19.1121C28.8591 19.3776 28.6522 19.5983 28.4039 19.7638C28.4039 19.7638 28.1384 19.8948 28.0867 19.5914L28.3763 17.4742Z" fill="#DDA78F"/>
<path d="M13.2969 17.1018C13.2727 16.9294 12.9831 16.6501 12.8555 16.557C12.5727 16.3466 12.2865 16.5638 12.2038 16.8363C12.1314 17.0811 12.1245 17.357 12.1038 17.6087C12.0589 18.2259 12.1555 18.8328 12.4314 19.3914C12.6176 19.7638 12.9072 20.0707 13.2521 20.3018C13.2521 20.3018 13.6245 20.488 13.6969 20.0604L13.2934 17.1018H13.2969Z" fill="#FBBCA0"/>
<path d="M13.3556 17.4742C13.3384 17.35 13.1315 17.1535 13.0384 17.0845C12.8349 16.9362 12.6315 17.0879 12.5729 17.2845C12.5212 17.4604 12.5143 17.6569 12.5039 17.8362C12.4729 18.2776 12.5384 18.7121 12.7384 19.1121C12.8729 19.3776 13.0798 19.5983 13.3281 19.7638C13.3281 19.7638 13.5936 19.8948 13.6453 19.5914L13.3556 17.4742Z" fill="#DDA78F"/>
<path d="M28.6621 17.6604C28.6621 19.6121 28.3242 21.5845 27.4069 23.2707C26.6035 24.7466 25.3966 25.9294 24.1 26.8742C23.0483 27.6397 21.9207 28.5328 20.5931 28.4225C19.2069 28.3087 18.1276 27.1259 17.1138 26.2052C15.6897 24.9087 14.5655 23.2983 13.8724 21.4018C13.4448 20.2328 13.2483 18.9156 13.2483 17.6569C13.2483 11.35 16.7 7.38452 20.9552 7.38452C25.2104 7.38452 28.6621 11.35 28.6621 17.6569V17.6604Z" fill="#FBBCA0"/>
<path d="M33.0209 32.6257L24.4071 30.374H17.4968L8.88297 32.6257C8.88297 32.6257 4.89331 34.1051 4.44849 38.7844H37.4554C37.0106 34.1051 33.0209 32.6257 33.0209 32.6257Z" fill="#FBBCA0"/>
<path d="M33.0209 32.6257L24.4071 30.374H17.4968L8.88297 32.6257C8.88297 32.6257 4.89331 34.1051 4.44849 38.7844H37.4554C37.0106 34.1051 33.0209 32.6257 33.0209 32.6257Z" fill="white"/>
<path d="M15.3206 10.4017C15.3206 10.4017 17.9068 14.2465 24.4102 14.6913C24.4102 14.6913 23.8654 14.4465 23.224 12.7707C23.224 12.7707 25.3447 14.5948 28.0309 15.7776L28.6481 17.0293C28.6481 17.0293 28.6447 16.3913 29.2344 16.5017C29.2344 16.5017 29.7275 11.4913 27.6585 9.02583C27.6585 9.02583 28.6481 9.0741 29.2861 9.61893C29.2861 9.61893 28.3481 7.64652 25.1447 6.56376C25.1447 6.56376 25.9344 5.92238 27.3619 6.36721C27.3619 6.36721 25.4723 5.481 22.3033 5.62928C22.3033 5.62928 16.0895 5.381 15.3206 10.4086V10.4017Z" fill="#3C2415"/>
<path d="M16.3281 11.3156L13.2626 16.9983C13.2626 16.9983 12.9902 16.6708 12.8591 16.557C12.8591 16.557 12.7005 8.75006 17.0247 7.27075L16.3316 11.3121L16.3281 11.3156Z" fill="#3C2415"/>
<path d="M33.0206 32.6258L26.6482 30.9603L20.9551 38.7879L15.3206 30.9465L8.88614 32.6293C8.88614 32.6293 4.89649 34.1086 4.45166 38.7879H37.4586C37.0137 34.1086 33.0241 32.6293 33.0241 32.6293L33.0206 32.6258Z" fill="#414042"/>
<path d="M20.1968 34.8635L18.6106 38.7842H23.1209L21.5727 34.8635H20.1968Z" fill="#BD1E2D"/>
<path d="M20.8478 30.45L18.8306 33.1603L20.234 34.8741L20.9202 34.8637L21.6099 34.85L22.9547 33.0913L20.8478 30.45Z" fill="#BE1E2D"/>
<g style="mix-blend-mode:multiply">
<path d="M22.1996 32.8051C21.9409 33.3154 21.4616 33.8982 20.8065 33.7534C20.1306 33.6051 19.8237 32.9672 19.9789 32.3189C20.1306 31.6879 20.5375 31.1603 20.7651 30.5637L18.8271 33.1603L20.2306 34.8741L21.6065 34.8534L22.9547 33.0948L22.3858 32.381C22.3306 32.5258 22.2685 32.6706 22.1996 32.8085V32.8051Z" fill="#D1D3D4"/>
</g>
<path d="M20.9556 38.7843L15.3211 30.9429L10.8176 32.1187L16.5728 36.1705L15.0935 36.8222L17.7556 38.7843H20.9556Z" fill="#363436"/>
<path d="M20.9551 38.7948L26.5861 30.9534L31.0896 32.1292L25.3344 36.181L26.8137 36.8361L24.1516 38.7948H20.9551Z" fill="#363436"/>
<path d="M14.1069 30.5361L17.4862 28.9534L20.9311 30.3913L24.3724 28.9534L27.9828 30.5361L22.8793 33.9534L20.9311 31.1603L18.8311 33.9534L14.1069 30.5361Z" fill="#E2E3E4"/>
</g>
</g>
<defs>
<clipPath id="clip0_80_1273">
<rect width="40" height="38.6207" fill="white" transform="translate(0 0.689697)"/>
</clipPath>
</defs>
</svg>
