<svg width="59" height="59" viewBox="0 0 59 59" fill="none" xmlns="http://www.w3.org/2000/svg">
<circle cx="29.5" cy="29.5" r="29" fill="white" stroke="#E0E0E9"/>
<path fill-rule="evenodd" clip-rule="evenodd" d="M39.7185 29.8106C39.7185 29.0611 39.6512 28.3403 39.5263 27.6484H29.5706V31.7374H35.2595C35.0145 33.0587 34.2697 34.1783 33.1502 34.9278V37.5801H36.5665C38.5653 35.7399 39.7185 33.0299 39.7185 29.8106Z" fill="#4285F4"/>
<path fill-rule="evenodd" clip-rule="evenodd" d="M29.5705 40.1404C32.4246 40.1404 34.8175 39.1939 36.5664 37.5794L33.1502 34.9271C32.2036 35.5614 30.9928 35.9361 29.5705 35.9361C26.8173 35.9361 24.487 34.0767 23.6557 31.5781H20.1241V34.3169C21.8635 37.7716 25.4383 40.1404 29.5705 40.1404Z" fill="#34A853"/>
<path fill-rule="evenodd" clip-rule="evenodd" d="M23.6558 31.5799C23.4444 30.9456 23.3243 30.2681 23.3243 29.5714C23.3243 28.8747 23.4444 28.1972 23.6558 27.563V24.8242H20.1242C19.4083 26.2513 18.9999 27.8657 18.9999 29.5714C18.9999 31.2772 19.4083 32.8916 20.1242 34.3187L23.6558 31.5799Z" fill="#FBBC05"/>
<path fill-rule="evenodd" clip-rule="evenodd" d="M29.5705 23.2043C31.1225 23.2043 32.5159 23.7376 33.6114 24.7851L36.6433 21.7532C34.8127 20.0475 32.4198 19 29.5705 19C25.4383 19 21.8635 21.3688 20.1241 24.8235L23.6557 27.5623C24.487 25.0638 26.8173 23.2043 29.5705 23.2043Z" fill="#EA4335"/>
</svg>
