<svg width="82" height="14" viewBox="0 0 82 14" fill="none" xmlns="http://www.w3.org/2000/svg">
<path d="M75.4278 11.0973C75.6061 11.3695 75.8454 11.59 76.1457 11.7589C76.4461 11.9279 76.7652 12.0123 77.103 12.0123C77.4503 12.0123 77.7694 11.9279 78.0603 11.7589C78.3607 11.5994 78.6 11.3788 78.7783 11.0973C78.9754 10.8157 79.2147 10.6749 79.4963 10.6749C79.6465 10.6749 79.7919 10.7172 79.9327 10.8016C80.1392 10.9424 80.2659 11.1254 80.3128 11.3507C80.3691 11.5759 80.3316 11.7824 80.2002 11.9701C79.8811 12.4957 79.4447 12.9086 78.8909 13.209C78.3372 13.5187 77.7412 13.6735 77.103 13.6735C76.4648 13.6735 75.8736 13.5187 75.3292 13.209C74.7849 12.9086 74.3438 12.4957 74.0059 11.9701C73.8839 11.7824 73.8463 11.5759 73.8933 11.3507C73.9496 11.1254 74.0763 10.9424 74.2734 10.8016C74.4329 10.7172 74.5737 10.6749 74.6957 10.6749C74.996 10.6749 75.2401 10.8157 75.4278 11.0973ZM73.7806 6.84572V3.67818C73.7806 3.43416 73.8604 3.23237 74.02 3.07282C74.1889 2.91327 74.3907 2.8335 74.6253 2.8335C74.8599 2.8335 75.057 2.91796 75.2166 3.0869C75.3855 3.24645 75.47 3.44354 75.47 3.67818V6.84572C75.47 7.29622 75.6295 7.68571 75.9486 8.0142C76.2677 8.3333 76.6525 8.49285 77.103 8.49285C77.5629 8.49285 77.9524 8.3333 78.2715 8.0142C78.5906 7.68571 78.7502 7.29622 78.7502 6.84572V3.67818C78.7502 3.43416 78.8299 3.23237 78.9895 3.07282C79.149 2.91327 79.3461 2.8335 79.5808 2.8335C79.806 2.8335 79.9984 2.91796 80.158 3.0869C80.3269 3.24645 80.4114 3.44354 80.4114 3.67818V6.84572C80.4114 7.76548 80.0876 8.55385 79.44 9.21082C78.7924 9.85841 78.0087 10.1822 77.089 10.1822C76.1786 10.1822 75.3996 9.85841 74.752 9.21082C74.1044 8.55385 73.7806 7.76548 73.7806 6.84572Z" fill="url(#paint0_linear_252_12040)"/>
<path d="M69.8613 10.1822C68.8477 10.1822 67.9843 9.82556 67.271 9.11228C66.5577 8.38961 66.201 7.51677 66.201 6.49377C66.201 5.48016 66.5577 4.61671 67.271 3.90342C67.9843 3.19014 68.8477 2.8335 69.8613 2.8335C70.8468 2.8335 71.7149 3.19014 72.4657 3.90342C72.6253 4.06297 72.7051 4.26007 72.7051 4.4947C72.7051 4.71995 72.6253 4.91704 72.4657 5.08597C72.2874 5.24552 72.0903 5.3253 71.8745 5.3253C71.6211 5.3253 71.424 5.24083 71.2832 5.0719C70.8984 4.6871 70.4244 4.4947 69.8613 4.4947C69.317 4.4947 68.8477 4.69179 68.4535 5.08597C68.0593 5.48016 67.8622 5.94942 67.8622 6.49377C67.8622 7.04751 68.0546 7.52147 68.4394 7.91565C68.8336 8.30045 69.3076 8.49285 69.8613 8.49285C70.4057 8.49285 70.8796 8.30045 71.2832 7.91565C71.4334 7.74671 71.6351 7.66225 71.8885 7.66225C72.1232 7.66225 72.3156 7.74671 72.4657 7.91565C72.6253 8.0752 72.7051 8.27229 72.7051 8.50693C72.7051 8.74156 72.6253 8.94334 72.4657 9.11228C71.7149 9.82556 70.8468 10.1822 69.8613 10.1822Z" fill="url(#paint1_linear_252_12040)"/>
<path d="M58.5206 6.14182C58.5206 5.24083 58.8491 4.46654 59.5061 3.81895C60.1631 3.16198 60.9467 2.8335 61.8571 2.8335C62.7581 2.8335 63.5324 3.16198 64.18 3.81895C64.8369 4.46654 65.1654 5.24083 65.1654 6.14182V9.3516C65.1654 9.57685 65.081 9.77394 64.912 9.94288C64.7525 10.1024 64.5601 10.1822 64.3348 10.1822C64.1002 10.1822 63.8984 10.1024 63.7295 9.94288C63.5699 9.77394 63.4901 9.57685 63.4901 9.3516V6.14182C63.4901 5.69133 63.3259 5.30653 62.9974 4.98743C62.6783 4.65894 62.2982 4.4947 61.8571 4.4947C61.4066 4.4947 61.0171 4.65894 60.6886 4.98743C60.3601 5.30653 60.1959 5.69133 60.1959 6.14182V9.3516C60.1959 9.57685 60.1114 9.77394 59.9425 9.94288C59.7829 10.1024 59.5859 10.1822 59.3512 10.1822C59.126 10.1822 58.9289 10.1024 58.76 9.94288C58.6004 9.77394 58.5206 9.57685 58.5206 9.3516V6.14182Z" fill="url(#paint2_linear_252_12040)"/>
<path d="M50.2538 6.49377C50.2538 5.48016 50.6104 4.61671 51.3237 3.90342C52.0464 3.19014 52.9192 2.8335 53.9422 2.8335C54.8338 2.8335 55.6175 3.12444 56.2932 3.70633C56.969 4.27884 57.3772 5.00151 57.518 5.87434C57.6119 6.24975 57.579 6.55009 57.4195 6.77533C57.2693 6.9912 56.9784 7.09913 56.5466 7.09913H52.0417C52.1731 7.51208 52.4124 7.84995 52.7597 8.11274C53.1069 8.36615 53.5011 8.49285 53.9422 8.49285C54.4678 8.49285 54.9324 8.30045 55.3359 7.91565C55.5049 7.74671 55.7066 7.66225 55.9413 7.66225C56.1759 7.66225 56.3683 7.74671 56.5185 7.91565C56.678 8.0752 56.7578 8.27229 56.7578 8.50693C56.7578 8.74156 56.678 8.94334 56.5185 9.11228C56.1806 9.44077 55.7864 9.70355 55.3359 9.90065C54.8948 10.0884 54.4302 10.1822 53.9422 10.1822C52.9192 10.1822 52.0464 9.82556 51.3237 9.11228C50.6104 8.38961 50.2538 7.51677 50.2538 6.49377ZM55.8005 5.91658C55.6879 5.50362 55.4579 5.16575 55.1107 4.90296C54.7634 4.63079 54.3739 4.4947 53.9422 4.4947C53.5011 4.4947 53.1069 4.63079 52.7597 4.90296C52.4124 5.16575 52.1778 5.50362 52.0558 5.91658H55.8005Z" fill="url(#paint3_linear_252_12040)"/>
<path d="M47.7328 6.49377C47.7328 5.94942 47.5357 5.48016 47.1416 5.08597C46.7568 4.69179 46.2969 4.4947 45.7619 4.4947C45.1988 4.4947 44.7201 4.69179 44.326 5.08597C43.9412 5.48016 43.7488 5.94942 43.7488 6.49377C43.7488 7.04751 43.9412 7.52147 44.326 7.91565C44.7201 8.30045 45.1988 8.49285 45.7619 8.49285C46.2969 8.49285 46.7568 8.30045 47.1416 7.91565C47.5357 7.52147 47.7328 7.04751 47.7328 6.49377ZM42.0735 6.49377C42.0735 5.48016 42.4301 4.61671 43.1434 3.90342C43.8661 3.19014 44.7389 2.8335 45.7619 2.8335C46.7661 2.8335 47.6202 3.19014 48.3241 3.90342C49.0374 4.61671 49.394 5.48016 49.394 6.49377C49.394 7.51677 49.0374 8.38961 48.3241 9.11228C47.6202 9.82556 46.7661 10.1822 45.7619 10.1822C44.7389 10.1822 43.8661 9.82556 43.1434 9.11228C42.4301 8.38961 42.0735 7.51677 42.0735 6.49377ZM44.0585 11.0973C44.2368 11.3788 44.4761 11.5994 44.7765 11.7589C45.0768 11.9279 45.4053 12.0123 45.7619 12.0123C46.0998 12.0123 46.4142 11.9279 46.7051 11.7589C46.9961 11.5994 47.2307 11.3788 47.409 11.0973C47.5967 10.8157 47.8408 10.6749 48.1411 10.6749C48.2819 10.6749 48.4226 10.7172 48.5634 10.8016C48.7605 10.9424 48.8872 11.1254 48.9435 11.3507C48.9998 11.5759 48.9623 11.7824 48.8309 11.9701C48.5024 12.4957 48.066 12.9086 47.5217 13.209C46.9773 13.5187 46.3907 13.6735 45.7619 13.6735C45.1049 13.6735 44.5043 13.5187 43.9599 13.209C43.425 12.9086 42.9839 12.4957 42.6366 11.9701C42.5052 11.7824 42.4677 11.5759 42.524 11.3507C42.5803 11.1254 42.707 10.9424 42.9041 10.8016C43.0636 10.7172 43.2091 10.6749 43.3405 10.6749C43.6314 10.6749 43.8708 10.8157 44.0585 11.0973Z" fill="url(#paint4_linear_252_12040)"/>
<path d="M38.3923 6.45154L37.0971 3.36846L35.7878 6.45154H38.3923ZM32.7611 8.90111L36.182 0.876657C36.2571 0.68895 36.3744 0.54817 36.534 0.454317C36.7029 0.360464 36.8906 0.313538 37.0971 0.313538C37.2942 0.313538 37.4772 0.360464 37.6461 0.454317C37.8151 0.54817 37.9324 0.68895 37.9981 0.876657L41.4049 8.90111C41.5176 9.13574 41.5269 9.37038 41.4331 9.60501C41.3392 9.83964 41.175 9.99919 40.9404 10.0837C40.8277 10.1494 40.7057 10.1822 40.5743 10.1822C40.4054 10.1822 40.2459 10.1306 40.0957 10.0274C39.9455 9.92411 39.8329 9.78802 39.7578 9.61909L39.1806 8.29576H34.9995L34.4223 9.61909C34.3472 9.78802 34.2346 9.92411 34.0844 10.0274C33.9342 10.1306 33.77 10.1822 33.5917 10.1822C33.4697 10.1822 33.3477 10.1494 33.2256 10.0837C32.991 9.99919 32.8268 9.83964 32.7329 9.60501C32.6485 9.37038 32.6578 9.13574 32.7611 8.90111Z" fill="url(#paint5_linear_252_12040)"/>
<path d="M15.5235 9.11228C14.8103 8.39899 14.4536 7.53554 14.4536 6.52193C14.4536 5.49893 14.8103 4.63079 15.5235 3.9175C16.2462 3.19483 17.1143 2.8335 18.128 2.8335C19.1416 2.8335 20.005 3.19483 20.7183 3.9175C21.4316 4.63079 21.7882 5.49424 21.7882 6.50785C21.7882 7.06159 21.9853 7.53554 22.3795 7.92973C22.7737 8.32391 23.2476 8.521 23.8014 8.521C24.3363 8.521 24.7962 8.32391 25.181 7.92973C25.5752 7.53554 25.7723 7.06159 25.7723 6.50785C25.7723 5.95412 25.5799 5.48016 25.1951 5.08597C24.8103 4.69179 24.3457 4.4947 23.8014 4.4947C23.2476 4.4947 22.7737 4.69648 22.3795 5.10005C22.2106 4.50878 21.9337 4.01135 21.5489 3.60779C22.1965 3.09159 22.9473 2.8335 23.8014 2.8335C24.8056 2.8335 25.6644 3.19483 26.3776 3.9175C27.1003 4.63079 27.4616 5.49424 27.4616 6.50785C27.4616 7.52147 27.1003 8.38961 26.3776 9.11228C25.6644 9.82556 24.8056 10.1822 23.8014 10.1822C22.7784 10.1822 21.9102 9.82556 21.197 9.11228C20.4837 8.39899 20.127 7.53085 20.127 6.50785C20.127 5.95412 19.9299 5.48016 19.5358 5.08597C19.1416 4.69179 18.6723 4.4947 18.128 4.4947C17.5836 4.4947 17.1143 4.69179 16.7202 5.08597C16.326 5.48016 16.1289 5.95412 16.1289 6.50785C16.1289 7.0522 16.326 7.52616 16.7202 7.92973C17.1143 8.32391 17.5836 8.521 18.128 8.521C18.6911 8.521 19.1603 8.31922 19.5358 7.91565C19.7235 8.50693 20.0003 8.99966 20.3664 9.39384C19.6812 9.91942 18.9351 10.1822 18.128 10.1822C17.1143 10.1822 16.2462 9.82556 15.5235 9.11228Z" fill="url(#paint6_linear_252_12040)"/>
<path d="M11.6032 3.67831C11.6032 3.44368 11.6829 3.24658 11.8425 3.08703C12.0114 2.9181 12.2085 2.83363 12.4338 2.83363C12.6778 2.83363 12.8796 2.9134 13.0391 3.07296C13.2081 3.23251 13.2925 3.43429 13.2925 3.67831V9.36582C13.2925 10.2856 12.9687 11.0693 12.3211 11.7168C11.6736 12.3738 10.8899 12.7023 9.97013 12.7023C9.74488 12.7023 9.55248 12.6178 9.39293 12.4489C9.22399 12.2893 9.13953 12.0923 9.13953 11.8576C9.13953 11.623 9.2193 11.4212 9.37885 11.2523C9.5384 11.0927 9.73549 11.0129 9.97013 11.0129C10.43 11.0129 10.8148 10.8534 11.1245 10.5343C11.4436 10.2152 11.6032 9.8257 11.6032 9.36582V3.67831ZM11.4905 1.43991C11.4905 1.16773 11.5844 0.942486 11.7721 0.764165C11.9598 0.576458 12.1804 0.482605 12.4338 0.482605C12.7153 0.482605 12.9453 0.576458 13.1236 0.764165C13.3113 0.942486 13.4051 1.16773 13.4051 1.43991C13.4051 1.69331 13.3113 1.91387 13.1236 2.10157C12.9359 2.28928 12.7059 2.38313 12.4338 2.38313C12.1804 2.38313 11.9598 2.28928 11.7721 2.10157C11.5844 1.91387 11.4905 1.69331 11.4905 1.43991Z" fill="url(#paint7_linear_252_12040)"/>
<path d="M8.34342 3.67831C8.34342 3.44368 8.42319 3.24658 8.58274 3.08703C8.75168 2.9181 8.94877 2.83363 9.17402 2.83363C9.41804 2.83363 9.61982 2.9181 9.77937 3.08703C9.94831 3.24658 10.0328 3.44368 10.0328 3.67831V9.35174C10.0328 9.57699 9.94831 9.77408 9.77937 9.94301C9.61043 10.1026 9.40865 10.1823 9.17402 10.1823C8.94877 10.1823 8.75168 10.1026 8.58274 9.94301C8.42319 9.77408 8.34342 9.57699 8.34342 9.35174V3.67831ZM8.51235 2.0875C8.33403 1.89979 8.24487 1.67454 8.24487 1.41175C8.24487 1.14896 8.33403 0.928408 8.51235 0.750087C8.69067 0.571766 8.91123 0.482605 9.17402 0.482605C9.44619 0.482605 9.67144 0.571766 9.84976 0.750087C10.0375 0.928408 10.1313 1.15366 10.1313 1.42583C10.1313 1.68862 10.0375 1.91387 9.84976 2.10157C9.67144 2.2799 9.44619 2.36906 9.17402 2.36906C8.92061 2.36906 8.70006 2.2752 8.51235 2.0875Z" fill="url(#paint8_linear_252_12040)"/>
<path d="M0 1.22855C0 0.975142 0.0891604 0.759279 0.267481 0.580958C0.455187 0.402637 0.675742 0.313477 0.929145 0.313477C1.18255 0.313477 1.39372 0.402637 1.56265 0.580958C1.74097 0.749894 1.83013 0.965757 1.83013 1.22855V4.93106L5.67342 0.609115C5.84235 0.412022 6.07229 0.313477 6.36324 0.313477C6.58848 0.313477 6.78557 0.383866 6.95451 0.524646C7.14221 0.693582 7.24545 0.904752 7.26422 1.15816C7.28299 1.41156 7.2126 1.63211 7.05305 1.81982L4.63165 4.5228L7.1516 8.8025C7.26422 9.01837 7.28769 9.24831 7.22199 9.49232C7.16568 9.73634 7.03428 9.92874 6.82781 10.0695C6.65887 10.1446 6.50871 10.1821 6.37731 10.1821C6.02067 10.1821 5.7485 10.0273 5.56079 9.71757L3.35055 5.98691L1.83013 7.70442V9.253C1.83013 9.5064 1.74097 9.72696 1.56265 9.91466C1.38433 10.093 1.17316 10.1821 0.929145 10.1821C0.675742 10.1821 0.455187 10.093 0.267481 9.91466C0.0891604 9.72696 0 9.5064 0 9.253V1.22855Z" fill="url(#paint9_linear_252_12040)"/>
<defs>
<linearGradient id="paint0_linear_252_12040" x1="81.0368" y1="5.15435" x2="-0.816451" y2="5.15435" gradientUnits="userSpaceOnUse">
<stop stop-color="#27E8B1"/>
<stop offset="0.775" stop-color="#693EB0"/>
</linearGradient>
<linearGradient id="paint1_linear_252_12040" x1="81.0366" y1="5.15435" x2="-0.8166" y2="5.15435" gradientUnits="userSpaceOnUse">
<stop stop-color="#27E8B1"/>
<stop offset="0.775" stop-color="#693EB0"/>
</linearGradient>
<linearGradient id="paint2_linear_252_12040" x1="81.0371" y1="5.15435" x2="-0.816186" y2="5.15435" gradientUnits="userSpaceOnUse">
<stop stop-color="#27E8B1"/>
<stop offset="0.775" stop-color="#693EB0"/>
</linearGradient>
<linearGradient id="paint3_linear_252_12040" x1="81.0371" y1="5.15435" x2="-0.816202" y2="5.15435" gradientUnits="userSpaceOnUse">
<stop stop-color="#27E8B1"/>
<stop offset="0.775" stop-color="#693EB0"/>
</linearGradient>
<linearGradient id="paint4_linear_252_12040" x1="81.0368" y1="5.15435" x2="-0.816432" y2="5.15435" gradientUnits="userSpaceOnUse">
<stop stop-color="#27E8B1"/>
<stop offset="0.775" stop-color="#693EB0"/>
</linearGradient>
<linearGradient id="paint5_linear_252_12040" x1="81.0364" y1="5.15436" x2="-0.816815" y2="5.15436" gradientUnits="userSpaceOnUse">
<stop stop-color="#27E8B1"/>
<stop offset="0.775" stop-color="#693EB0"/>
</linearGradient>
<linearGradient id="paint6_linear_252_12040" x1="81.037" y1="5.15435" x2="-0.816239" y2="5.15435" gradientUnits="userSpaceOnUse">
<stop stop-color="#27E8B1"/>
<stop offset="0.775" stop-color="#693EB0"/>
</linearGradient>
<linearGradient id="paint7_linear_252_12040" x1="81.0366" y1="5.15449" x2="-0.816685" y2="5.15449" gradientUnits="userSpaceOnUse">
<stop stop-color="#27E8B1"/>
<stop offset="0.775" stop-color="#693EB0"/>
</linearGradient>
<linearGradient id="paint8_linear_252_12040" x1="81.0368" y1="5.15449" x2="-0.816483" y2="5.15449" gradientUnits="userSpaceOnUse">
<stop stop-color="#27E8B1"/>
<stop offset="0.775" stop-color="#693EB0"/>
</linearGradient>
<linearGradient id="paint9_linear_252_12040" x1="81.0367" y1="5.1543" x2="-0.816531" y2="5.1543" gradientUnits="userSpaceOnUse">
<stop stop-color="#27E8B1"/>
<stop offset="0.775" stop-color="#693EB0"/>
</linearGradient>
</defs>
</svg>
