<svg width="20" height="24" viewBox="0 0 20 24" fill="none" xmlns="http://www.w3.org/2000/svg">
<g clip-path="url(#clip0_80_25819)">
<path d="M12.4473 20.6257C12.0905 21.4171 11.8545 22.2758 11.7642 23.1764L19.3168 21.571C19.6737 20.7798 19.9094 19.9208 20 19.0202L12.4473 20.6257Z" fill="#00AC96"/>
<path d="M19.3168 16.7611C19.6737 15.9699 19.9096 15.1109 20 14.2103L14.1167 15.4616V13.0562L19.3166 11.9512C19.6735 11.16 19.9094 10.301 19.9998 9.40041L14.1166 10.6506V2.00009C13.2151 2.50626 12.4145 3.18002 11.7637 3.97476V11.1509L9.41075 11.651V0.823547C8.50926 1.32953 7.70865 2.00347 7.05784 2.79821V12.151L1.79319 13.2697C1.4363 14.0609 1.20021 14.9198 1.10965 15.8204L7.05784 14.5564V17.5855L0.683189 18.9402C0.326294 19.7313 0.0903802 20.5903 0 21.4909L6.67248 20.0729C7.21565 19.96 7.68249 19.6388 7.98602 19.1969L9.20971 17.3827V17.3823C9.33674 17.1946 9.41075 16.9683 9.41075 16.7246V14.0562L11.7637 13.5561V18.3669L19.3166 16.7607L19.3168 16.7611Z" fill="#00AC96"/>
</g>
<defs>
<clipPath id="clip0_80_25819">
<rect width="20" height="22.3529" fill="white" transform="translate(0 0.823547)"/>
</clipPath>
</defs>
</svg>
