<svg width="159" height="165" viewBox="0 0 159 165" fill="none" xmlns="http://www.w3.org/2000/svg">
<g id="Group 2">
<g id="Clipped">
<mask id="mask0_159_2700" style="mask-type:luminance" maskUnits="userSpaceOnUse" x="18" y="23" width="141" height="142">
<ellipse id="Oval" cx="88.331" cy="93.5622" rx="69.7372" ry="70.4674" fill="white"/>
</mask>
<g mask="url(#mask0_159_2700)">
<g id="Group">
<ellipse id="Oval_2" opacity="0.4" cx="88.331" cy="93.5622" rx="69.7372" ry="70.4674" fill="#00AC96"/>
<path id="Path" fill-rule="evenodd" clip-rule="evenodd" d="M88.0127 41.1133V41.1143C88.1189 41.1136 88.2251 41.1133 88.3314 41.1133C116.998 41.1133 140.236 64.5952 140.236 93.5617C140.236 122.528 116.998 146.01 88.3314 146.01C88.2251 146.01 88.1189 146.01 88.0127 146.009V146.01H-27.897V129.208H88.0127V129.339C88.1189 129.34 88.2251 129.341 88.3314 129.341C107.887 129.341 123.739 113.322 123.739 93.5617C123.739 73.8018 107.887 57.7832 88.3314 57.7832C88.2251 57.7832 88.1189 57.7837 88.0127 57.7846V57.9146H-27.897V41.1133H88.0127Z" fill="white"/>
</g>
</g>
</g>
<g id="Group 181">
<path id="Fill 1" fill-rule="evenodd" clip-rule="evenodd" d="M24.5982 59.5721L26.496 86.8687L14.636 81.3466L11.6313 93.3382C11.6313 93.3382 37.0907 107.539 39.6209 107.065C42.1511 106.592 35.8254 51.3672 35.8254 51.3672L24.5982 59.5721Z" fill="#00AC96"/>
<path id="Stroke 3" fill-rule="evenodd" clip-rule="evenodd" d="M24.5982 59.5721L26.496 86.8687L14.636 81.3466L11.6313 93.3382C11.6313 93.3382 37.0907 107.539 39.6209 107.065C42.1511 106.592 35.8254 51.3672 35.8254 51.3672L24.5982 59.5721Z" stroke="#263238" stroke-width="0.511163" stroke-linecap="round" stroke-linejoin="round"/>
<path id="Fill 5" fill-rule="evenodd" clip-rule="evenodd" d="M41.6908 125.424C41.6908 125.424 55.3479 120.74 60.6829 116.268C66.0178 111.797 38.063 57.7139 38.063 57.7139C38.063 57.7139 38.4899 107.326 41.6908 125.424" fill="#00AC96"/>
<path id="Stroke 7" fill-rule="evenodd" clip-rule="evenodd" d="M41.6908 125.424C41.6908 125.424 55.3479 120.74 60.6829 116.268C66.0178 111.797 38.063 57.7139 38.063 57.7139C38.063 57.7139 38.4899 107.326 41.6908 125.424Z" stroke="#263238" stroke-width="0.511163" stroke-linecap="round" stroke-linejoin="round"/>
<path id="Fill 9" fill-rule="evenodd" clip-rule="evenodd" d="M98.8614 107.951L97.2826 108.186C97.2949 108.281 97.3025 108.364 97.2995 108.419C97.1798 110.444 86.2048 115.835 78.4562 118.753C76.7614 120.062 74.4951 120.723 71.6428 120.723C71.6167 120.723 71.5932 120.72 71.5671 120.719C65.5865 121.294 54.0971 118.666 51.4994 116.894L48.6978 145.482C48.6983 145.482 48.6988 145.482 48.6993 145.482C49.1502 145.703 49.6098 145.915 50.074 146.123C56.1447 148.807 63.3298 150.155 71.6428 150.155C81.2308 150.155 89.3689 148.265 96.0566 144.489C96.1052 144.461 96.1543 144.434 96.2028 144.406C96.6251 144.165 97.0423 143.918 97.4523 143.662C97.9472 143.354 98.4309 143.034 98.9079 142.709C99.0541 142.61 99.1962 142.507 99.3409 142.406C99.6753 142.172 100.007 141.935 100.332 141.692C100.487 141.577 100.641 141.461 100.793 141.344C101.119 141.094 101.44 140.839 101.757 140.581C101.885 140.476 102.015 140.373 102.142 140.266C102.577 139.903 103.005 139.534 103.422 139.154C103.423 139.154 103.423 139.153 103.424 139.152C101.638 126.506 98.8614 107.951 98.8614 107.951" fill="#050503"/>
<path id="Stroke 11" fill-rule="evenodd" clip-rule="evenodd" d="M98.8614 107.951L97.2826 108.186C97.2949 108.281 97.3025 108.364 97.2995 108.419C97.1798 110.444 86.2048 115.835 78.4562 118.753C76.7614 120.062 74.4951 120.723 71.6428 120.723C71.6167 120.723 71.5932 120.72 71.5671 120.719C65.5865 121.294 54.0971 118.666 51.4994 116.894L48.6978 145.482C48.6983 145.482 48.6988 145.482 48.6993 145.482C49.1502 145.703 49.6098 145.915 50.074 146.123C56.1447 148.807 63.3298 150.155 71.6428 150.155C81.2308 150.155 89.3689 148.265 96.0566 144.489C96.1052 144.461 96.1543 144.434 96.2028 144.406C96.6251 144.165 97.0423 143.918 97.4523 143.662C97.9472 143.354 98.4309 143.034 98.9079 142.709C99.0541 142.61 99.1962 142.507 99.3409 142.406C99.6753 142.172 100.007 141.935 100.332 141.692C100.487 141.577 100.641 141.461 100.793 141.344C101.119 141.094 101.44 140.839 101.757 140.581C101.885 140.476 102.015 140.373 102.142 140.266C102.577 139.903 103.005 139.534 103.422 139.154C103.423 139.154 103.423 139.153 103.424 139.152C101.638 126.506 98.8614 107.951 98.8614 107.951Z" stroke="#263238" stroke-width="0.511163" stroke-linecap="round" stroke-linejoin="round"/>
<path id="Fill 13" fill-rule="evenodd" clip-rule="evenodd" d="M37.6303 74.7535C37.6303 74.7535 50.2828 105.614 50.4387 106.705C50.5952 107.796 49.1892 114.81 51.2199 116.68C53.2506 118.55 66.8402 121.667 72.6194 120.576C78.3991 119.485 97.1432 111.069 97.2996 108.419C97.4556 105.769 78.7115 54.0243 76.3684 47.79C74.0254 41.5557 64.4971 39.3734 58.0927 39.9968C51.6882 40.6201 36.2244 44.6726 33.413 48.569C30.6011 52.4659 37.6303 74.7535 37.6303 74.7535" fill="white"/>
<path id="Stroke 15" fill-rule="evenodd" clip-rule="evenodd" d="M37.6303 74.7535C37.6303 74.7535 50.2828 105.614 50.4387 106.705C50.5952 107.796 49.1892 114.81 51.2199 116.68C53.2506 118.55 66.8402 121.667 72.6194 120.576C78.3991 119.485 97.1432 111.069 97.2996 108.419C97.4556 105.769 78.7115 54.0243 76.3684 47.79C74.0254 41.5557 64.4971 39.3734 58.0927 39.9968C51.6882 40.6201 36.2244 44.6726 33.413 48.569C30.6011 52.4659 37.6303 74.7535 37.6303 74.7535Z" stroke="#050503" stroke-width="0.511163" stroke-linecap="round" stroke-linejoin="round"/>
<path id="Fill 17" fill-rule="evenodd" clip-rule="evenodd" d="M38.724 46.0752C38.724 46.0752 37.1621 60.2583 38.0992 63.2196C39.0364 66.181 43.2997 74.3272 43.2997 74.3272C43.2997 74.3272 50.4393 65.4015 51.8448 64.4664C53.2507 63.5313 66.2156 71.7919 66.2156 71.7919C66.2156 71.7919 66.6839 62.908 64.8096 55.5825C62.9354 48.257 59.6552 40.3081 58.5616 38.9058C57.468 37.5029 57.468 42.6461 53.4072 46.0752C49.3458 49.5043 38.724 46.0752 38.724 46.0752" fill="white"/>
<path id="Stroke 19" fill-rule="evenodd" clip-rule="evenodd" d="M38.724 46.0752C38.724 46.0752 37.1621 60.2583 38.0992 63.2196C39.0364 66.181 43.2997 74.3272 43.2997 74.3272C43.2997 74.3272 50.4393 65.4015 51.8448 64.4664C53.2507 63.5313 66.2156 71.7919 66.2156 71.7919C66.2156 71.7919 66.6839 62.908 64.8096 55.5825C62.9354 48.257 59.6552 40.3081 58.5616 38.9058C57.468 37.5029 57.468 42.6461 53.4072 46.0752C49.3458 49.5043 38.724 46.0752 38.724 46.0752Z" stroke="#050503" stroke-width="0.511163" stroke-linecap="round" stroke-linejoin="round"/>
<path id="Fill 21" fill-rule="evenodd" clip-rule="evenodd" d="M37.5708 48.545C37.5708 48.545 39.4256 53.256 43.4727 58.9766C47.5193 64.6967 53.0837 68.9033 53.0837 68.9033C53.0837 68.9033 57.4677 57.6304 58.6482 50.9002C59.8287 44.1706 57.8052 37.4404 57.8052 37.4404C57.8052 37.4404 56.9621 47.5354 53.4212 49.5545C49.8802 51.5736 37.5708 48.545 37.5708 48.545" fill="white"/>
<path id="Stroke 23" fill-rule="evenodd" clip-rule="evenodd" d="M37.5708 48.545C37.5708 48.545 39.4256 53.256 43.4727 58.9766C47.5193 64.6967 53.0837 68.9033 53.0837 68.9033C53.0837 68.9033 57.4677 57.6304 58.6482 50.9002C59.8287 44.1706 57.8052 37.4404 57.8052 37.4404C57.8052 37.4404 56.9621 47.5354 53.4212 49.5545C49.8802 51.5736 37.5708 48.545 37.5708 48.545Z" stroke="#050503" stroke-width="0.511163" stroke-linecap="round" stroke-linejoin="round"/>
<path id="Fill 25" fill-rule="evenodd" clip-rule="evenodd" d="M46.8301 50.1202C42.3648 49.7243 37.5708 48.5449 37.5708 48.5449C37.5708 48.5449 39.4256 53.2555 43.4727 58.9761C43.8628 59.528 44.2697 60.0606 44.6823 60.582L51.6584 52.5296L46.8301 50.1202Z" fill="#050503"/>
<path id="Stroke 27" fill-rule="evenodd" clip-rule="evenodd" d="M46.8301 50.1202C42.3648 49.7243 37.5708 48.5449 37.5708 48.5449C37.5708 48.5449 39.4256 53.2555 43.4727 58.9761C43.8628 59.528 44.2697 60.0606 44.6823 60.582L51.6584 52.5296L46.8301 50.1202Z" stroke="#263238" stroke-width="0.511163" stroke-linecap="round" stroke-linejoin="round"/>
<path id="Fill 29" fill-rule="evenodd" clip-rule="evenodd" d="M57.8052 37.4399C57.8052 37.4399 62.9351 57.9202 64.8093 73.3501C66.6836 88.78 71.2138 134.447 71.2138 134.447C71.2138 134.447 85.2717 130.394 92.6133 125.095C99.9549 119.796 102.298 116.211 102.298 116.211C102.298 116.211 90.2702 63.6872 90.2702 62.9077C90.2702 62.1282 91.5197 54.3355 91.5197 54.3355C91.5197 54.3355 112.763 44.3604 120.886 38.2816C129.008 32.2034 126.978 28.9304 123.073 27.372C119.168 25.813 106.984 27.5276 100.267 29.3977C93.5504 31.2684 90.1143 32.5151 90.1143 32.5151C90.1143 32.5151 82.6163 31.8917 75.7435 33.4502C68.8707 35.0086 57.8052 37.4399 57.8052 37.4399" fill="#00AC96"/>
<path id="Stroke 31" fill-rule="evenodd" clip-rule="evenodd" d="M57.8052 37.4399C57.8052 37.4399 62.9351 57.9202 64.8093 73.3501C66.6836 88.78 71.2138 134.447 71.2138 134.447C71.2138 134.447 85.2717 130.394 92.6133 125.095C99.9549 119.796 102.298 116.211 102.298 116.211C102.298 116.211 90.2702 63.6872 90.2702 62.9077C90.2702 62.1282 91.5197 54.3355 91.5197 54.3355C91.5197 54.3355 112.763 44.3604 120.886 38.2816C129.008 32.2034 126.978 28.9304 123.073 27.372C119.168 25.813 106.984 27.5276 100.267 29.3977C93.5504 31.2684 90.1143 32.5151 90.1143 32.5151C90.1143 32.5151 82.6163 31.8917 75.7435 33.4502C68.8707 35.0086 57.8052 37.4399 57.8052 37.4399Z" stroke="#050503" stroke-width="0.511163" stroke-linecap="round" stroke-linejoin="round"/>
<g id="Group 36">
<path id="Fill 33" fill-rule="evenodd" clip-rule="evenodd" d="M68.5938 89.8408C68.3459 90.6177 68.0754 91.4513 67.7773 92.3655Z" fill="white"/>
<path id="Stroke 35" d="M68.5938 89.8408C68.3459 90.6177 68.0754 91.4513 67.7773 92.3655" stroke="#050503" stroke-width="0.511163" stroke-linecap="round" stroke-linejoin="round"/>
</g>
<path id="Stroke 37" d="M71.0008 55.1494L73.4001 56.6732C73.4001 56.6732 72.6102 69.0908 71.5258 76.9346C70.8729 81.6594 70.3014 84.2514 69.2451 87.7483" stroke="#050503" stroke-width="0.511163" stroke-linecap="round" stroke-linejoin="round"/>
<path id="Stroke 39" d="M66.7573 40.3613C68.3294 43.2441 70.5887 47.4919 70.5887 48.1015C70.5887 49.0366 68.2456 53.4008 68.2456 53.4008L69.7098 54.3308" stroke="#050503" stroke-width="0.511163" stroke-linecap="round" stroke-linejoin="round"/>
<g id="Group 44">
<path id="Fill 41" fill-rule="evenodd" clip-rule="evenodd" d="M65.2754 37.6738C65.2754 37.6738 65.5595 38.1182 66.0056 38.8242Z" fill="white"/>
<path id="Stroke 43" d="M65.2754 37.6738C65.2754 37.6738 65.5595 38.1182 66.0056 38.8242" stroke="#263238" stroke-width="0.511163" stroke-linecap="round" stroke-linejoin="round"/>
</g>
<path id="Stroke 45" d="M94.0383 106.33C92.2995 107.53 89.6686 109.063 86.053 110.445C78.7114 113.25 77.4619 113.718 77.4619 113.718L78.5555 117.459C78.5555 117.459 91.3639 115.121 97.2995 108.419" stroke="#050503" stroke-width="0.511163" stroke-linecap="round" stroke-linejoin="round"/>
<g id="Group 50">
<path id="Fill 47" fill-rule="evenodd" clip-rule="evenodd" d="M96.6746 104.211C96.6746 104.211 96.3336 104.568 95.6255 105.144Z" fill="white"/>
<path id="Stroke 49" d="M96.6746 104.211C96.6746 104.211 96.3336 104.568 95.6255 105.144" stroke="#263238" stroke-width="0.511163" stroke-linecap="round" stroke-linejoin="round"/>
</g>
<path id="Stroke 51" d="M94.3207 46.0592L91.52 54.3361L98.0804 44.5166" stroke="#263238" stroke-width="0.511163" stroke-linecap="round" stroke-linejoin="round"/>
<g id="Group 56">
<path id="Fill 53" fill-rule="evenodd" clip-rule="evenodd" d="M95.6643 42.334L94.9341 44.2465Z" fill="white"/>
<path id="Stroke 55" d="M95.6643 42.334L94.9341 44.2465" stroke="#263238" stroke-width="0.511163" stroke-linecap="round" stroke-linejoin="round"/>
</g>
<path id="Fill 57" fill-rule="evenodd" clip-rule="evenodd" d="M38.724 46.0758C38.724 46.0758 40.2859 74.4422 42.0042 88.3137C43.7225 102.185 46.5339 136.474 46.5339 136.474C46.5339 136.474 41.0671 136.007 37.4745 131.643C33.8819 127.278 32.1636 124.005 32.1636 124.005V93.1451C32.1636 91.8984 29.6641 77.7152 27.321 70.7014C24.9779 63.6881 21.5418 55.5832 23.5725 52.1546C25.6032 48.7255 32.0071 43.5823 34.3502 42.9584C36.6933 42.3351 38.5675 42.9584 38.724 46.0758" fill="#00AC96"/>
<path id="Stroke 59" fill-rule="evenodd" clip-rule="evenodd" d="M38.724 46.0758C38.724 46.0758 40.2859 74.4422 42.0042 88.3137C43.7225 102.185 46.5339 136.474 46.5339 136.474C46.5339 136.474 41.0671 136.007 37.4745 131.643C33.8819 127.278 32.1636 124.005 32.1636 124.005V93.1451C32.1636 91.8984 29.6641 77.7152 27.321 70.7014C24.9779 63.6881 21.5418 55.5832 23.5725 52.1546C25.6032 48.7255 32.0071 43.5823 34.3502 42.9584C36.6933 42.3351 38.5675 42.9584 38.724 46.0758Z" stroke="#050503" stroke-width="0.511163" stroke-linecap="round" stroke-linejoin="round"/>
<g id="Group 64">
<path id="Fill 61" fill-rule="evenodd" clip-rule="evenodd" d="M37.8472 81.7012C38.7301 84.4549 39.5875 86.9004 40.2858 88.4686Z" fill="white"/>
<path id="Stroke 63" d="M37.8472 81.7012C38.7301 84.4549 39.5875 86.9004 40.2858 88.4686" stroke="#050503" stroke-width="0.511163" stroke-linecap="round" stroke-linejoin="round"/>
</g>
<path id="Stroke 65" d="M32.5066 51.4775C32.2433 53.5017 32.1165 55.0689 32.3195 55.2714C32.9443 55.8948 35.4433 58.0766 35.4433 58.0766C35.4433 58.0766 32.3195 61.973 32.7878 63.9992C33.0961 65.3307 35.1575 73.0546 37.2439 79.7873" stroke="#050503" stroke-width="0.511163" stroke-linecap="round" stroke-linejoin="round"/>
<g id="Group 70">
<path id="Fill 67" fill-rule="evenodd" clip-rule="evenodd" d="M34.1936 41.0879C34.1936 41.0879 33.37 45.5551 32.7866 49.4795Z" fill="white"/>
<path id="Stroke 69" d="M34.1936 41.0879C34.1936 41.0879 33.37 45.5551 32.7866 49.4795" stroke="#050503" stroke-width="0.511163" stroke-linecap="round" stroke-linejoin="round"/>
</g>
<g id="Group 74">
<path id="Fill 71" fill-rule="evenodd" clip-rule="evenodd" d="M36.0191 113.141L33.2568 111.848Z" fill="white"/>
<path id="Stroke 73" d="M36.0191 113.141L33.2568 111.848" stroke="#050503" stroke-width="0.511163" stroke-linecap="round" stroke-linejoin="round"/>
</g>
<path id="Stroke 75" d="M33.2568 107.64L40.9108 110.757V115.432L37.4092 113.793" stroke="#050503" stroke-width="0.511163" stroke-linecap="round" stroke-linejoin="round"/>
<path id="Fill 77" fill-rule="evenodd" clip-rule="evenodd" d="M27.0532 27.3222L29.723 33.8494C29.723 33.8494 26.2521 30.2524 25.4515 33.4494C24.6503 36.6464 27.0532 40.376 28.655 40.376C30.2572 40.376 32.1259 40.5091 32.1259 40.5091C32.1259 40.5091 37.7328 50.3664 41.2037 52.2309C44.6746 54.096 49.3469 55.6942 52.2835 54.096C55.2207 52.4972 56.8224 48.1019 57.757 44.7718C58.6916 41.4416 58.0239 31.4512 58.0239 31.4512L53.2181 11.7377C53.2181 11.7377 56.5556 10.5389 56.5556 8.27446C56.5556 6.00999 48.8126 5.34376 48.8126 5.34376C48.8126 5.34376 51.8832 1.74733 48.012 1.21476C44.1403 0.681671 31.5921 8.14132 31.1913 8.40761C30.791 8.67389 33.3273 3.74552 30.1238 5.47741C26.9198 7.2088 23.182 15.7336 23.5823 17.7318C23.9826 19.73 27.0532 27.3222 27.0532 27.3222" fill="white"/>
<path id="Stroke 79" fill-rule="evenodd" clip-rule="evenodd" d="M27.0532 27.3222L29.723 33.8494C29.723 33.8494 26.2521 30.2524 25.4515 33.4494C24.6503 36.6464 27.0532 40.376 28.655 40.376C30.2572 40.376 32.1259 40.5091 32.1259 40.5091C32.1259 40.5091 37.7328 50.3664 41.2037 52.2309C44.6746 54.096 49.3469 55.6942 52.2835 54.096C55.2207 52.4972 56.8224 48.1019 57.757 44.7718C58.6916 41.4416 58.0239 31.4512 58.0239 31.4512L53.2181 11.7377C53.2181 11.7377 56.5556 10.5389 56.5556 8.27446C56.5556 6.00999 48.8126 5.34376 48.8126 5.34376C48.8126 5.34376 51.8832 1.74733 48.012 1.21476C44.1403 0.681671 31.5921 8.14132 31.1913 8.40761C30.791 8.67389 33.3273 3.74552 30.1238 5.47741C26.9198 7.2088 23.182 15.7336 23.5823 17.7318C23.9826 19.73 27.0532 27.3222 27.0532 27.3222Z" stroke="#050503" stroke-width="0.511163" stroke-linecap="round" stroke-linejoin="round"/>
<path id="Fill 81" fill-rule="evenodd" clip-rule="evenodd" d="M48.8132 5.34422C48.8132 5.34422 51.8833 1.7478 48.0121 1.21471C44.1409 0.682132 31.5922 8.14127 31.1919 8.40807C30.7916 8.67435 33.3279 3.74598 30.1239 5.47736C26.9198 7.20926 23.1821 15.7341 23.5829 17.7322C23.9832 19.7299 27.0533 27.3227 27.0533 27.3227L29.7235 33.8493C29.7235 33.8493 32.7936 36.6464 31.7256 34.5155C30.6581 32.3842 28.5221 27.589 29.0559 26.9228C29.5901 26.257 32.2599 25.1914 32.3933 23.7258C32.5267 22.2607 29.857 17.9985 30.6581 16.9329C31.4587 15.8672 42.806 17.8654 44.8086 16.6666C46.8106 15.4678 44.2743 12.5371 44.2743 12.5371L53.2187 11.7377C53.2187 11.7377 56.5561 10.5389 56.5561 8.27492C56.5561 6.01045 48.8132 5.34422 48.8132 5.34422" fill="#050503"/>
<path id="Stroke 83" fill-rule="evenodd" clip-rule="evenodd" d="M48.8132 5.34422C48.8132 5.34422 51.8833 1.7478 48.0121 1.21471C44.1409 0.682132 31.5922 8.14127 31.1919 8.40807C30.7916 8.67435 33.3279 3.74598 30.1239 5.47736C26.9198 7.20926 23.1821 15.7341 23.5829 17.7322C23.9832 19.7299 27.0533 27.3227 27.0533 27.3227L29.7235 33.8493C29.7235 33.8493 32.7936 36.6464 31.7256 34.5155C30.6581 32.3842 28.5221 27.589 29.0559 26.9228C29.5901 26.257 32.2599 25.1914 32.3933 23.7258C32.5267 22.2607 29.857 17.9985 30.6581 16.9329C31.4587 15.8672 42.806 17.8654 44.8086 16.6666C46.8106 15.4678 44.2743 12.5371 44.2743 12.5371L53.2187 11.7377C53.2187 11.7377 56.5561 10.5389 56.5561 8.27492C56.5561 6.01045 48.8132 5.34422 48.8132 5.34422Z" stroke="#263238" stroke-width="0.511163" stroke-linecap="round" stroke-linejoin="round"/>
<g id="Group 88">
<path id="Fill 85" fill-rule="evenodd" clip-rule="evenodd" d="M50.5486 38.2451C50.5486 38.2451 49.3472 40.5096 47.478 40.6427Z" fill="white"/>
<path id="Stroke 87" d="M50.5486 38.2451C50.5486 38.2451 49.3472 40.5096 47.478 40.6427" stroke="#050503" stroke-width="0.511163" stroke-linecap="round" stroke-linejoin="round"/>
</g>
<path id="Fill 89" fill-rule="evenodd" clip-rule="evenodd" d="M42.2721 32.1175C42.6448 32.9184 42.4858 33.7805 41.9172 34.0442C41.3487 34.3075 40.5859 33.8718 40.2138 33.0709C39.841 32.27 40 31.4074 40.5686 31.1441C41.1366 30.8809 41.8994 31.3166 42.2721 32.1175" fill="#050503"/>
<path id="Fill 91" fill-rule="evenodd" clip-rule="evenodd" d="M52.9092 30.0189C53.0482 30.8907 52.6597 31.6773 52.0405 31.7753C51.4214 31.8737 50.8074 31.2468 50.6678 30.375C50.5288 29.5031 50.9178 28.717 51.5365 28.6186C52.1556 28.5201 52.7701 29.1471 52.9092 30.0189" fill="#050503"/>
<g id="Group 96">
<path id="Fill 93" fill-rule="evenodd" clip-rule="evenodd" d="M47.478 45.7047C47.478 45.7047 49.7475 45.7047 51.3492 44.5059Z" fill="white"/>
<path id="Stroke 95" d="M47.478 45.7047C47.478 45.7047 49.7475 45.7047 51.3492 44.5059" stroke="#050503" stroke-width="0.511163" stroke-linecap="round" stroke-linejoin="round"/>
</g>
<path id="Stroke 97" d="M35.5972 30.3869C35.5972 30.3869 37.4663 27.723 42.539 29.3212" stroke="#050503" stroke-width="1.02233" stroke-linecap="round" stroke-linejoin="round"/>
<path id="Stroke 99" d="M49.0801 27.8555C49.0801 27.8555 50.0146 24.7917 53.619 24.5254" stroke="#050503" stroke-width="1.02233" stroke-linecap="round" stroke-linejoin="round"/>
<path id="Fill 101" fill-rule="evenodd" clip-rule="evenodd" d="M56.5557 25.1914C56.5557 25.1914 57.4902 23.0601 58.5582 24.392C59.6262 25.7245 60.0266 28.3884 59.3589 30.1198C58.6917 31.8517 58.2914 33.3168 58.2914 33.3168L58.024 31.4517L56.5557 25.1914Z" fill="white"/>
<path id="Stroke 103" fill-rule="evenodd" clip-rule="evenodd" d="M56.5557 25.1914C56.5557 25.1914 57.4902 23.0601 58.5582 24.392C59.6262 25.7245 60.0266 28.3884 59.3589 30.1198C58.6917 31.8517 58.2914 33.3168 58.2914 33.3168L58.024 31.4517L56.5557 25.1914Z" stroke="#050503" stroke-width="0.511163" stroke-linecap="round" stroke-linejoin="round"/>
<path id="Fill 105" fill-rule="evenodd" clip-rule="evenodd" d="M81.1189 14.8016C81.1189 14.8016 66.4347 12.1377 65.5001 12.1377C64.5656 12.1377 53.6191 14.1354 52.0169 14.8016C50.4151 15.4678 38.2672 18.9306 38.5341 19.73C38.801 20.5293 40.2693 20.7956 40.2693 20.7956C40.2693 20.7956 40.5367 21.9944 44.8082 22.5275C49.0802 23.0601 59.0921 21.7282 59.226 22.6607C59.3595 23.5927 58.5583 24.3921 58.5583 24.3921L59.7598 26.5234C59.7598 26.5234 64.1653 25.8572 65.6336 24.7915C67.1019 23.7263 71.2405 20.3962 71.2405 20.3962L80.1843 21.0619L81.1189 14.8016Z" fill="white"/>
<path id="Stroke 107" fill-rule="evenodd" clip-rule="evenodd" d="M81.1189 14.8016C81.1189 14.8016 66.4347 12.1377 65.5001 12.1377C64.5656 12.1377 53.6191 14.1354 52.0169 14.8016C50.4151 15.4678 38.2672 18.9306 38.5341 19.73C38.801 20.5293 40.2693 20.7956 40.2693 20.7956C40.2693 20.7956 40.5367 21.9944 44.8082 22.5275C49.0802 23.0601 59.0921 21.7282 59.226 22.6607C59.3595 23.5927 58.5583 24.3921 58.5583 24.3921L59.7598 26.5234C59.7598 26.5234 64.1653 25.8572 65.6336 24.7915C67.1019 23.7263 71.2405 20.3962 71.2405 20.3962L80.1843 21.0619L81.1189 14.8016Z" stroke="#050503" stroke-width="0.511163" stroke-linecap="round" stroke-linejoin="round"/>
<g id="Group 112">
<path id="Fill 109" fill-rule="evenodd" clip-rule="evenodd" d="M48.5459 16.666C48.5459 16.666 42.5387 19.1968 41.6041 19.7299C40.6695 20.2624 43.3398 21.3281 44.9416 21.0618C46.5433 20.795 52.684 18.3979 53.6185 18.1311C54.5531 17.8648 58.8251 18.9305 61.8952 19.3299C64.9658 19.7299 67.1018 18.7973 67.6355 18.5311" fill="white"/>
<path id="Stroke 111" d="M48.5459 16.666C48.5459 16.666 42.5387 19.1968 41.6041 19.7299C40.6695 20.2624 43.3398 21.3281 44.9416 21.0618C46.5433 20.795 52.684 18.3979 53.6185 18.1311C54.5531 17.8648 58.8251 18.9305 61.8952 19.3299C64.9658 19.7299 67.1018 18.7973 67.6355 18.5311" stroke="#050503" stroke-width="0.511163" stroke-linecap="round" stroke-linejoin="round"/>
</g>
<g id="Group 116">
<path id="Fill 113" fill-rule="evenodd" clip-rule="evenodd" d="M117.293 36.1005C117.293 36.1005 112.607 37.3472 106.984 36.1005C101.361 34.8537 86.5216 27.5282 86.5216 27.5282L76.3687 24.5669L78.7117 12.7217C78.7117 12.7217 104.329 15.8386 111.514 18.4882C118.699 21.1378 129.165 27.2165 128.852 29.3984C128.54 31.5807 122.76 36.2561 122.76 36.2561" fill="#00AC96"/>
<path id="Stroke 115" d="M117.293 36.1005C117.293 36.1005 112.607 37.3472 106.984 36.1005C101.361 34.8537 86.5216 27.5282 86.5216 27.5282L76.3687 24.5669L78.7117 12.7217C78.7117 12.7217 104.329 15.8386 111.514 18.4882C118.699 21.1378 129.165 27.2165 128.852 29.3984C128.54 31.5807 122.76 36.2561 122.76 36.2561" stroke="#263238" stroke-width="0.511163" stroke-linecap="round" stroke-linejoin="round"/>
</g>
<path id="Stroke 117" d="M29.3071 87.0261C29.3071 87.0261 38.7065 97.7725 46.6371 94.1578C54.5676 90.543 58.4838 67.3896 58.4838 67.3896" stroke="#050503" stroke-width="0.511163" stroke-linecap="round" stroke-linejoin="round"/>
<path id="Stroke 119" d="M16.9707 78.9179C16.9707 78.9179 24.412 88.1987 34.3006 87.3197C44.1893 86.4403 47.518 75.0103 47.4204 69.3438" stroke="#050503" stroke-width="0.511163" stroke-linecap="round" stroke-linejoin="round"/>
<path id="Fill 121" fill-rule="evenodd" clip-rule="evenodd" d="M16.3237 87.7973L13.1841 86.7449L18.1305 72.0547L21.2701 73.1071L16.3237 87.7973Z" fill="#7D7D7D"/>
<path id="Stroke 123" fill-rule="evenodd" clip-rule="evenodd" d="M16.3237 87.7973L13.1841 86.7449L18.1305 72.0547L21.2701 73.1071L16.3237 87.7973Z" stroke="#263238" stroke-width="0.511163" stroke-linecap="round" stroke-linejoin="round"/>
<path id="Fill 125" fill-rule="evenodd" clip-rule="evenodd" d="M21.9537 73.9379L17.0825 72.3049L17.81 70.1445L22.6812 71.7775L21.9537 73.9379Z" fill="#050503"/>
<path id="Stroke 127" fill-rule="evenodd" clip-rule="evenodd" d="M21.9537 73.9379L17.0825 72.3049L17.81 70.1445L22.6812 71.7775L21.9537 73.9379Z" stroke="#263238" stroke-width="0.511163" stroke-linecap="round" stroke-linejoin="round"/>
<path id="Fill 129" fill-rule="evenodd" clip-rule="evenodd" d="M23.2514 90.1196L20.1123 89.0672L25.0582 74.377L28.1978 75.4294L23.2514 90.1196Z" fill="#7D7D7D"/>
<path id="Stroke 131" fill-rule="evenodd" clip-rule="evenodd" d="M23.2514 90.1196L20.1123 89.0672L25.0582 74.377L28.1978 75.4294L23.2514 90.1196Z" stroke="#263238" stroke-width="0.511163" stroke-linecap="round" stroke-linejoin="round"/>
<path id="Fill 133" fill-rule="evenodd" clip-rule="evenodd" d="M28.882 76.2601L24.0107 74.6272L24.7377 72.4668L29.6095 74.0997L28.882 76.2601Z" fill="#050503"/>
<path id="Stroke 135" fill-rule="evenodd" clip-rule="evenodd" d="M28.882 76.2601L24.0107 74.6272L24.7377 72.4668L29.6095 74.0997L28.882 76.2601Z" stroke="#263238" stroke-width="0.511163" stroke-linecap="round" stroke-linejoin="round"/>
<path id="Fill 137" fill-rule="evenodd" clip-rule="evenodd" d="M23.2517 90.1194L13.0757 86.7082L16.8584 75.4746L27.0339 78.8859L23.2517 90.1194Z" fill="#050503"/>
<path id="Stroke 139" fill-rule="evenodd" clip-rule="evenodd" d="M23.2517 90.1194L13.0757 86.7082L16.8584 75.4746L27.0339 78.8859L23.2517 90.1194Z" stroke="#263238" stroke-width="0.511163" stroke-linecap="round" stroke-linejoin="round"/>
<path id="Fill 141" fill-rule="evenodd" clip-rule="evenodd" d="M13.9456 94.2126L4.45264 91.0304L9.48541 82.7402L14.9502 84.5721L13.9456 94.2126Z" fill="#ECEDEE"/>
<path id="Stroke 143" fill-rule="evenodd" clip-rule="evenodd" d="M13.9456 94.2126L4.45264 91.0304L9.48541 82.7402L14.9502 84.5721L13.9456 94.2126Z" stroke="#050503" stroke-width="0.511163" stroke-linecap="round" stroke-linejoin="round"/>
<path id="Fill 145" fill-rule="evenodd" clip-rule="evenodd" d="M10.5613 104.265L1.06836 101.082L4.45285 91.0303L13.9458 94.2125L10.5613 104.265Z" fill="#636363"/>
<path id="Stroke 147" fill-rule="evenodd" clip-rule="evenodd" d="M10.5613 104.265L1.06836 101.082L4.45285 91.0303L13.9458 94.2125L10.5613 104.265Z" stroke="#050503" stroke-width="0.511163" stroke-linecap="round" stroke-linejoin="round"/>
<path id="Fill 149" fill-rule="evenodd" clip-rule="evenodd" d="M16.2554 85.1379L8.104 82.4051L11.4885 72.3535L19.6399 75.0858L16.2554 85.1379Z" fill="#636363"/>
<path id="Stroke 151" fill-rule="evenodd" clip-rule="evenodd" d="M16.2554 85.1379L8.104 82.4051L11.4885 72.3535L19.6399 75.0858L16.2554 85.1379Z" stroke="#050503" stroke-width="0.511163" stroke-linecap="round" stroke-linejoin="round"/>
<path id="Fill 153" fill-rule="evenodd" clip-rule="evenodd" d="M27.8025 98.8581L18.3096 95.6759L23.3423 87.3857L28.8071 89.2176L27.8025 98.8581Z" fill="#ECEDEE"/>
<path id="Stroke 155" fill-rule="evenodd" clip-rule="evenodd" d="M27.8025 98.8581L18.3096 95.6759L23.3423 87.3857L28.8071 89.2176L27.8025 98.8581Z" stroke="#050503" stroke-width="0.511163" stroke-linecap="round" stroke-linejoin="round"/>
<path id="Fill 157" fill-rule="evenodd" clip-rule="evenodd" d="M24.4177 108.91L14.9248 105.728L18.3093 95.6758L27.8022 98.858L24.4177 108.91Z" fill="#636363"/>
<path id="Stroke 159" fill-rule="evenodd" clip-rule="evenodd" d="M24.4177 108.91L14.9248 105.728L18.3093 95.6758L27.8022 98.858L24.4177 108.91Z" stroke="#050503" stroke-width="0.511163" stroke-linecap="round" stroke-linejoin="round"/>
<path id="Fill 161" fill-rule="evenodd" clip-rule="evenodd" d="M30.1119 89.7824L21.9604 87.0497L25.3449 76.998L33.4964 79.7303L30.1119 89.7824Z" fill="#636363"/>
<path id="Stroke 163" fill-rule="evenodd" clip-rule="evenodd" d="M30.1119 89.7824L21.9604 87.0497L25.3449 76.998L33.4964 79.7303L30.1119 89.7824Z" stroke="#050503" stroke-width="0.511163" stroke-linecap="round" stroke-linejoin="round"/>
<path id="Fill 165" fill-rule="evenodd" clip-rule="evenodd" d="M8.26304 71.6822C8.26304 71.6822 7.15669 73.5003 7.48236 74.0196C7.80751 74.5389 10.9962 76.2922 11.4517 76.4218C11.9072 76.5519 13.1435 75.9025 13.0785 75.0582C13.0131 74.2145 10.5407 72.3964 9.75948 71.9418C8.97879 71.4873 8.5882 71.4225 8.26304 71.6822" fill="white"/>
<path id="Stroke 167" fill-rule="evenodd" clip-rule="evenodd" d="M8.26304 71.6822C8.26304 71.6822 7.15669 73.5003 7.48236 74.0196C7.80751 74.5389 10.9962 76.2922 11.4517 76.4218C11.9072 76.5519 13.1435 75.9025 13.0785 75.0582C13.0131 74.2145 10.5407 72.3964 9.75948 71.9418C8.97879 71.4873 8.5882 71.4225 8.26304 71.6822Z" stroke="#263238" stroke-width="0.511163" stroke-linecap="round" stroke-linejoin="round"/>
<path id="Fill 169" fill-rule="evenodd" clip-rule="evenodd" d="M6.51069 75.2744C6.51069 75.2744 5.97745 77.3338 6.43912 77.7373C6.90078 78.1409 10.4611 78.901 10.9346 78.8943C11.408 78.8872 12.4039 77.9098 12.0977 77.1201C11.7914 76.3309 8.89773 75.3025 8.01889 75.0923C7.13953 74.8816 6.74689 74.9321 6.51069 75.2744" fill="white"/>
<path id="Stroke 171" fill-rule="evenodd" clip-rule="evenodd" d="M6.51069 75.2744C6.51069 75.2744 5.97745 77.3338 6.43912 77.7373C6.90078 78.1409 10.4611 78.901 10.9346 78.8943C11.408 78.8872 12.4039 77.9098 12.0977 77.1201C11.7914 76.3309 8.89773 75.3025 8.01889 75.0923C7.13953 74.8816 6.74689 74.9321 6.51069 75.2744Z" stroke="#263238" stroke-width="0.511163" stroke-linecap="round" stroke-linejoin="round"/>
<path id="Fill 173" fill-rule="evenodd" clip-rule="evenodd" d="M5.53462 78.8458C5.53462 78.8458 5.00138 80.9052 5.46304 81.3087C5.9247 81.7123 9.48507 82.4724 9.95849 82.4657C10.4319 82.4586 11.4278 81.4812 11.1216 80.6915C10.8153 79.9023 7.92166 78.8739 7.04281 78.6632C6.16346 78.453 5.77082 78.5035 5.53462 78.8458" fill="white"/>
<path id="Stroke 175" fill-rule="evenodd" clip-rule="evenodd" d="M5.53462 78.8458C5.53462 78.8458 5.00138 80.9052 5.46304 81.3087C5.9247 81.7123 9.48507 82.4724 9.95849 82.4657C10.4319 82.4586 11.4278 81.4812 11.1216 80.6915C10.8153 79.9023 7.92166 78.8739 7.04281 78.6632C6.16346 78.453 5.77082 78.5035 5.53462 78.8458Z" stroke="#263238" stroke-width="0.511163" stroke-linecap="round" stroke-linejoin="round"/>
<path id="Fill 177" fill-rule="evenodd" clip-rule="evenodd" d="M5.99018 82.2871C5.99018 82.2871 5.45695 84.3465 5.91861 84.75C6.38027 85.1536 9.94012 85.9136 10.4141 85.907C10.8875 85.8999 11.8834 84.9225 11.5772 84.1328C11.2709 83.3436 8.37722 82.3152 7.49838 82.105C6.61902 81.8943 6.22638 81.9448 5.99018 82.2871" fill="white"/>
<path id="Stroke 179" fill-rule="evenodd" clip-rule="evenodd" d="M5.99018 82.2871C5.99018 82.2871 5.45695 84.3465 5.91861 84.75C6.38027 85.1536 9.94012 85.9136 10.4141 85.907C10.8875 85.8999 11.8834 84.9225 11.5772 84.1328C11.2709 83.3436 8.37722 82.3152 7.49838 82.105C6.61902 81.8943 6.22638 81.9448 5.99018 82.2871Z" stroke="#263238" stroke-width="0.511163" stroke-linecap="round" stroke-linejoin="round"/>
</g>
</g>
</svg>
