<svg width="52" height="51" viewBox="0 0 52 51" fill="none" xmlns="http://www.w3.org/2000/svg">
<circle cx="26" cy="25.125" r="25.125" fill="white"/>
<path d="M34.1316 23.2944H41.2985" stroke="#27265C" stroke-width="1.5457" stroke-linecap="round" stroke-linejoin="round"/>
<path d="M41.2987 23.2944H44.7456C47.8215 23.2944 50.3153 20.8007 50.3153 17.7247C50.3153 14.6488 48.0276 12.3714 45.132 12.1756C45.9564 6.50807 41.5615 1.5 35.9093 1.5C30.9116 1.5 26.8361 5.43124 26.5991 10.3723C22.0547 7.90951 16.4541 11.1915 16.4541 16.4212C16.4541 17.2455 16.5984 18.0596 16.8818 18.8222" stroke="#27265C" stroke-width="1.5457" stroke-linecap="round" stroke-linejoin="round"/>
<path d="M4.7684 30.4663L0.935059 36.917V47.9121C0.935059 49.0353 1.84703 49.9473 2.97024 49.9473H35.5485C36.6717 49.9473 37.5836 49.0353 37.5836 47.9121V36.917L33.7503 30.4663" stroke="#27265C" stroke-width="1.5457" stroke-linecap="round" stroke-linejoin="round"/>
<path d="M37.5733 36.9121H28.0879C27.2738 36.9121 26.6143 37.5716 26.6143 38.3857V39.5295C26.6143 40.5239 25.8105 41.3277 24.8161 41.3277H13.6923C12.6979 41.3277 11.8941 40.5239 11.8941 39.5295V38.3857C11.8941 37.5716 11.2346 36.9121 10.4205 36.9121H0.935059" stroke="#27265C" stroke-width="1.5457" stroke-linecap="round" stroke-linejoin="round"/>
<path d="M6.47388 35.2067V22.1558C6.47388 21.4705 7.03032 20.9141 7.71558 20.9141H13.7541C14.4394 20.9141 14.9958 21.4705 14.9958 22.1558V39.6274" stroke="#27265C" stroke-width="1.5457" stroke-linecap="round" stroke-linejoin="round"/>
<path d="M14.9907 22.1558C14.9907 21.4705 15.5472 20.9141 16.2325 20.9141H22.271C22.9562 20.9141 23.5127 21.4705 23.5127 22.1558" stroke="#27265C" stroke-width="1.5457" stroke-linecap="round" stroke-linejoin="round"/>
<path d="M23.5127 39.6276V22.1611C23.5127 21.4759 24.0691 20.9194 24.7544 20.9194H30.793C31.4782 20.9194 32.0347 21.4759 32.0347 22.1611V35.0729" stroke="#27265C" stroke-width="1.5457" stroke-linecap="round" stroke-linejoin="round"/>
<path d="M8.41113 27.7871H12.703" stroke="#27265C" stroke-width="1.5457" stroke-linecap="round" stroke-linejoin="round"/>
<path d="M8.41113 29.7041H12.703" stroke="#27265C" stroke-width="1.5457" stroke-linecap="round" stroke-linejoin="round"/>
<path d="M17.1084 27.7871H21.4003" stroke="#27265C" stroke-width="1.5457" stroke-linecap="round" stroke-linejoin="round"/>
<path d="M17.1084 29.7041H21.4003" stroke="#27265C" stroke-width="1.5457" stroke-linecap="round" stroke-linejoin="round"/>
<path d="M25.8054 27.7871H30.0973" stroke="#27265C" stroke-width="1.5457" stroke-linecap="round" stroke-linejoin="round"/>
<path d="M25.8054 29.7041H30.0973" stroke="#27265C" stroke-width="1.5457" stroke-linecap="round" stroke-linejoin="round"/>
<path d="M44.8897 14.2574C43.7253 14.1749 42.8803 13.1238 43.0451 11.9749L43.0606 11.877C43.3646 9.79028 42.7515 7.68813 41.381 6.10121C40.0053 4.50913 38.0113 3.59717 35.9143 3.59717C32.1583 3.59717 29.0669 6.45671 28.7268 10.1612C28.8299 9.97061 28.9381 9.78512 29.0514 9.59964C29.5151 8.8474 30.0458 8.11577 30.7568 7.59023C31.5709 6.99256 32.5756 6.69887 33.5803 6.60613C35.9143 6.38973 38.4647 7.36868 39.6137 9.41416C40.1289 10.3261 40.335 11.3772 40.4844 12.418C40.6648 13.6854 40.7627 14.9581 40.7781 16.2359C42.8133 16.0298 44.9154 16.648 46.5178 17.9155C47.0176 18.3123 47.4607 18.776 47.8523 19.286C48.1614 18.6729 48.2954 17.9619 48.182 17.2096C47.9347 15.5815 46.5281 14.3759 44.8897 14.2625" fill="#00AC96"/>
</svg>
