<svg width="158" height="163" viewBox="0 0 158 163" fill="none" xmlns="http://www.w3.org/2000/svg">
<path d="M136.269 75.0181L157.139 93.7364H66.5965L48.9045 75.0181H136.269Z" fill="#F0F4F3"/>
<path opacity="0.5" d="M136.269 75.0181L157.139 93.7364H66.5965L48.9045 75.0181H136.269Z" fill="#00AC96"/>
<path d="M136.308 75.0181H48.9033V162.423H136.308V75.0181Z" fill="#F0F4F3"/>
<path opacity="0.2" d="M136.308 75.0181H48.9033V162.423H136.308V75.0181Z" fill="#00AC96"/>
<path d="M108.231 75.0181H20.8262V162.423H108.231V75.0181Z" fill="#DDF8F5"/>
<path d="M20.8669 75.0181L-0.00195312 93.7364H90.5391L108.231 75.0181H20.8669Z" fill="#F0F4F3"/>
<path d="M20.8669 75.0181L-0.00195312 93.7364H90.5391L108.231 75.0181H20.8669Z" fill="#78D0C5"/>
<path d="M55.7662 46.9669C68.5524 46.9669 78.9176 36.6017 78.9176 23.8155C78.9176 11.0293 68.5524 0.664062 55.7662 0.664062C42.98 0.664062 32.6147 11.0293 32.6147 23.8155C32.6147 36.6017 42.98 46.9669 55.7662 46.9669Z" fill="#F0F4F3"/>
<g opacity="0.7">
<path d="M55.7662 46.9669C68.5524 46.9669 78.9176 36.6017 78.9176 23.8155C78.9176 11.0293 68.5524 0.664062 55.7662 0.664062C42.98 0.664062 32.6147 11.0293 32.6147 23.8155C32.6147 36.6017 42.98 46.9669 55.7662 46.9669Z" fill="white"/>
<path d="M48.2494 25.0419C47.2182 24.0794 46.6338 22.7043 46.6338 21.2605V21.0886C46.6338 18.6823 48.3526 16.6197 50.7245 16.2416C52.3058 15.9666 53.8872 16.4822 55.0216 17.5823L55.4341 17.9948L55.8466 17.5823C56.9466 16.4822 58.5623 15.9666 60.1093 16.2416C62.4812 16.6197 64.2344 18.6823 64.2344 21.0886V21.2605C64.2344 22.7043 63.6156 24.0794 62.5843 25.0419L56.3622 30.8515C56.1216 31.0921 55.7778 31.1953 55.4341 31.1953C55.0559 31.1953 54.7122 31.0921 54.4715 30.8515L48.2494 25.0419Z" fill="#00AC96"/>
</g>
<path d="M55.7654 47.4435C42.7366 47.4435 32.1377 36.8446 32.1377 23.8158C32.1377 10.7869 42.7366 0.187988 55.7654 0.187988C68.7943 0.187988 79.3932 10.7869 79.3932 23.8158C79.3932 36.8446 68.7943 47.4435 55.7654 47.4435ZM55.7654 1.14062C43.2624 1.14062 33.0903 11.3127 33.0903 23.8158C33.0903 36.3188 43.2624 46.4909 55.7654 46.4909C68.2685 46.4909 78.4406 36.3188 78.4406 23.8158C78.4406 11.3127 68.2685 1.14062 55.7654 1.14062Z" fill="#78D0C5"/>
<path d="M70.251 41.8761L77.8006 45.6294C78.1966 45.8263 78.6278 45.4336 78.4683 45.0211L75.1649 36.4551C73.484 38.8433 71.8416 40.7111 70.251 41.8761Z" fill="#78D0C5"/>
</svg>
