<svg width="120" height="46" viewBox="0 0 120 46" fill="none" xmlns="http://www.w3.org/2000/svg">
<g clip-path="url(#clip0_80_24444)">
<path d="M50.2894 25.5515V34.4392C50.2894 35.7606 49.2157 36.8342 47.8943 36.8342C46.5729 36.8342 45.4993 35.7606 45.4993 34.4392V25.5515H42.1322V34.4392C42.1322 35.7606 41.0586 36.8342 39.7372 36.8342C38.4158 36.8342 37.4375 35.8495 37.3485 34.6044C37.3866 34.3312 37.412 34.0517 37.412 33.7658V25.5515H37.3422H33.9751V34.4138C33.6765 35.7924 32.4504 36.8342 30.9765 36.8342H26.79C25.1001 36.8342 23.7215 35.4557 23.7215 33.7658V21.1616H20.3545V33.7658C20.3545 37.3107 23.2387 40.2013 26.79 40.2013H30.9765C32.7427 40.2013 34.3372 39.4897 35.4998 38.3335C36.5544 39.477 38.06 40.2013 39.7372 40.2013C41.2683 40.2013 42.7421 39.585 43.8158 38.505C44.8958 39.585 46.3633 40.2013 47.8943 40.2013C51.0708 40.2013 53.6564 37.6156 53.6564 34.4392V25.5515H50.2894Z" fill="white"/>
<path d="M10.9397 37.0564H8.84324C6.84843 37.0564 5.22844 35.4364 5.22844 33.4416C5.22844 31.4468 6.84843 29.8268 8.84324 29.8268C10.8381 29.8268 12.458 31.4468 12.458 33.4416V33.7529H15.6091V33.4416C15.6091 29.7125 12.5724 26.6758 8.84324 26.6758C5.11409 26.6758 2.0774 29.7125 2.0774 33.4416C2.0774 34.744 2.44587 35.9891 3.13198 37.0564H0V40.2075H15.6154V37.0564H10.9397Z" fill="white"/>
<path d="M62.3918 25.6719V38.1236C62.3918 40.3661 60.5685 42.1894 58.3259 42.1894H58.0146V45.6263H58.3259C62.4617 45.6263 65.8287 42.2593 65.8287 38.1236V25.6719H62.3918Z" fill="white"/>
<path d="M74.2211 20.9902H70.7842V38.9435H74.2211V20.9902Z" fill="white"/>
<path d="M74.0749 43.187H72.6265C72.0166 43.187 71.5147 42.6915 71.5147 42.0752C71.5147 41.459 72.0102 40.9635 72.6265 40.9635C73.2363 40.9635 73.7382 41.459 73.7382 42.0752H74.4498C74.4498 41.0651 73.6302 40.252 72.6265 40.252C71.6227 40.252 70.8032 41.0715 70.8032 42.0752C70.8032 42.4945 70.9493 42.8757 71.1907 43.187H70.5491V43.9049H74.4561V43.187H74.0749Z" fill="white"/>
<path d="M80.6121 22.2413H79.3479V21.5742H82.5815V22.2413H81.3173V25.6718H80.6121V22.2413Z" fill="white"/>
<path d="M83.2485 22.5781H83.941V23.2769C84.1316 22.8132 84.4746 22.4955 85.0083 22.521V23.2706H84.9702C84.3667 23.2706 83.9474 23.6772 83.9474 24.4967V25.672H83.2549V22.5845L83.2485 22.5781Z" fill="white"/>
<path d="M87.4416 25.672V25.2909C87.2383 25.545 86.9207 25.7356 86.4696 25.7356C85.8979 25.7356 85.396 25.3988 85.396 24.7826V24.7699C85.396 24.0838 85.9169 23.7598 86.6158 23.7598C86.9779 23.7598 87.2129 23.8106 87.448 23.8869V23.8297C87.448 23.404 87.1875 23.169 86.7047 23.169C86.368 23.169 86.1202 23.2452 85.8471 23.3596L85.6565 22.7942C85.9868 22.6417 86.3108 22.5337 86.8 22.5337C87.6894 22.5337 88.1214 23.0165 88.1214 23.836V25.6657H87.4353L87.4416 25.672ZM87.4607 24.376C87.2828 24.3062 87.0414 24.2553 86.7682 24.2553C86.3362 24.2553 86.0758 24.4396 86.0758 24.7318V24.7445C86.0758 25.0367 86.3299 25.2019 86.6602 25.2019C87.1176 25.2019 87.4607 24.9414 87.4607 24.5539V24.376Z" fill="white"/>
<path d="M88.9534 21.4346H89.6967V22.108H88.9534V21.4346ZM88.9788 22.5844H89.6712V25.672H88.9788V22.5844Z" fill="white"/>
<path d="M90.5732 22.5782H91.2657V23.061C91.4626 22.7688 91.7358 22.5146 92.2059 22.5146C92.8857 22.5146 93.2796 22.9848 93.2796 23.7026V25.672H92.5871V23.9186C92.5871 23.4358 92.352 23.1626 91.9455 23.1626C91.5389 23.1626 91.2657 23.4485 91.2657 23.9313V25.6784H90.5732V22.5909V22.5782Z" fill="white"/>
<path d="M94.1184 21.4346H94.8617V22.108H94.1184V21.4346ZM94.1438 22.5844H94.8363V25.672H94.1438V22.5844Z" fill="white"/>
<path d="M95.7383 22.5782H96.4307V23.061C96.6277 22.7688 96.9009 22.5146 97.371 22.5146C98.0507 22.5146 98.4446 22.9848 98.4446 23.7026V25.672H97.7522V23.9186C97.7522 23.4358 97.5171 23.1626 97.1105 23.1626C96.7039 23.1626 96.4307 23.4485 96.4307 23.9313V25.6784H95.7383V22.5909V22.5782Z" fill="white"/>
<path d="M99.2643 26.2502L99.5184 25.7165C99.836 25.9198 100.179 26.0469 100.592 26.0469C101.208 26.0469 101.545 25.7165 101.545 25.1003V24.8589C101.297 25.1956 100.98 25.4243 100.484 25.4243C99.7789 25.4243 99.1182 24.8843 99.1182 23.9758V23.9631C99.1182 23.0483 99.7852 22.5146 100.484 22.5146C100.992 22.5146 101.304 22.7561 101.539 23.0419V22.5782H102.231V25.0368C102.231 25.5577 102.098 25.9452 101.85 26.1993C101.577 26.4789 101.157 26.6123 100.611 26.6123C100.116 26.6123 99.6518 26.4852 99.2643 26.2438V26.2502ZM101.551 23.9822V23.9695C101.551 23.4612 101.145 23.1182 100.668 23.1182C100.192 23.1182 99.8106 23.4549 99.8106 23.9695V23.9822C99.8106 24.4904 100.192 24.8335 100.668 24.8335C101.145 24.8335 101.551 24.484 101.551 23.9822Z" fill="white"/>
<path d="M81.87 31.8219C81.5269 32.1522 81.1267 32.3555 80.6439 32.3555C79.9006 32.3555 79.3479 31.8918 79.3479 31.1866V31.1739C79.3479 30.6466 79.6528 30.2654 80.1992 30.024C79.9705 29.7254 79.8688 29.465 79.8688 29.1727V29.16C79.8688 28.6073 80.3008 28.1309 81.0124 28.1309C81.6476 28.1309 82.0733 28.5692 82.0733 29.1219V29.1346C82.0733 29.6746 81.7239 29.9923 81.1966 30.2019L81.8827 30.9134C82.0352 30.6784 82.1813 30.4116 82.3084 30.1257L82.8356 30.4116C82.6768 30.7419 82.4989 31.0595 82.2956 31.3454L82.9246 31.9998L82.4037 32.381L81.8764 31.8219H81.87ZM81.4698 31.4026L80.5804 30.4751C80.2119 30.6403 80.0531 30.888 80.0531 31.1548V31.1675C80.0531 31.5106 80.3326 31.7647 80.7201 31.7647C80.9933 31.7647 81.2474 31.6313 81.4698 31.409V31.4026ZM81.4444 29.1727V29.16C81.4444 28.8869 81.2538 28.6963 80.987 28.6963C80.7011 28.6963 80.5168 28.8996 80.5168 29.1854V29.1981C80.5168 29.4014 80.5994 29.5539 80.8218 29.808C81.2347 29.6556 81.4507 29.465 81.4507 29.1727H81.4444Z" fill="white"/>
<path d="M85.1353 30.2591V30.2464C85.1353 29.0838 85.9865 28.1309 87.1936 28.1309C87.9305 28.1309 88.3752 28.3913 88.7564 28.7661L88.3054 29.2998C87.9877 28.9949 87.6447 28.7916 87.1872 28.7916C86.4249 28.7916 85.8722 29.4332 85.8722 30.24V30.2527C85.8722 31.0532 86.4249 31.7075 87.1872 31.7075C87.6764 31.7075 87.9877 31.5043 88.3308 31.1739L88.7818 31.644C88.3689 32.0887 87.9115 32.3682 87.1618 32.3682C85.9993 32.3682 85.1353 31.4407 85.1353 30.2591Z" fill="white"/>
<path d="M89.2712 30.767V30.7543C89.2712 29.8712 89.9574 29.1406 90.8785 29.1406C91.7997 29.1406 92.4795 29.8585 92.4795 30.7416V30.7543C92.4795 31.631 91.7933 32.3615 90.8658 32.3615C89.9383 32.3615 89.2712 31.6437 89.2712 30.767ZM91.787 30.767V30.7543C91.787 30.2079 91.4058 29.7569 90.8658 29.7569C90.3258 29.7569 89.9574 30.2016 89.9574 30.7416V30.7543C89.9574 31.2943 90.3385 31.7517 90.8722 31.7517C91.4058 31.7517 91.787 31.3006 91.787 30.767Z" fill="white"/>
<path d="M93.1782 29.2042H93.8707V29.687C94.0676 29.3947 94.3408 29.1406 94.8109 29.1406C95.4907 29.1406 95.8846 29.6107 95.8846 30.3286V32.298H95.1921V30.5446C95.1921 30.0618 94.957 29.7886 94.5505 29.7886C94.1439 29.7886 93.8707 30.0745 93.8707 30.5573V32.3044H93.1782V29.2169V29.2042Z" fill="white"/>
<path d="M96.4688 31.8914L96.7737 31.4086C97.0977 31.6627 97.4534 31.7898 97.7584 31.7898C98.0633 31.7898 98.2285 31.6627 98.2285 31.4531V31.4404C98.2285 31.199 97.9109 31.1164 97.5551 31.0084C97.1104 30.8813 96.6149 30.6907 96.6149 30.0999V30.0872C96.6149 29.5027 97.085 29.147 97.6885 29.147C98.0633 29.147 98.4763 29.2804 98.7939 29.4964L98.5207 29.9983C98.2285 29.814 97.9236 29.706 97.6694 29.706C97.4026 29.706 97.2502 29.8331 97.2502 30.0173V30.03C97.2502 30.2524 97.5741 30.3477 97.9299 30.462C98.3683 30.6018 98.8638 30.8051 98.8638 31.3641V31.3768C98.8638 32.0248 98.3746 32.3488 97.7457 32.3488C97.32 32.3488 96.8436 32.19 96.4688 31.8851V31.8914Z" fill="white"/>
<path d="M99.531 31.1735V29.2041H100.223V30.9575C100.223 31.4403 100.459 31.7135 100.865 31.7135C101.272 31.7135 101.545 31.4276 101.545 30.9448V29.1978H102.237V32.2853H101.545V31.8024C101.348 32.0947 101.075 32.3488 100.605 32.3488C99.9249 32.3488 99.531 31.8787 99.531 31.1608V31.1735Z" fill="white"/>
<path d="M103.133 28.0225H103.826V32.2916H103.133V28.0225Z" fill="white"/>
<path d="M104.868 31.4405V29.8142H104.486V29.2043H104.868V28.353H105.56V29.2043H106.367V29.8142H105.56V31.3325C105.56 31.6057 105.7 31.7201 105.928 31.7201C106.081 31.7201 106.221 31.6819 106.354 31.6121V32.1902C106.183 32.2918 105.992 32.349 105.731 32.349C105.223 32.349 104.868 32.1203 104.868 31.4405Z" fill="white"/>
<path d="M108.901 32.298V31.9168C108.698 32.1709 108.38 32.3615 107.929 32.3615C107.358 32.3615 106.856 32.0248 106.856 31.4086V31.3959C106.856 30.7098 107.377 30.3858 108.075 30.3858C108.438 30.3858 108.673 30.4366 108.908 30.5128V30.4557C108.908 30.03 108.647 29.795 108.164 29.795C107.828 29.795 107.58 29.8712 107.307 29.9855L107.116 29.4201C107.447 29.2677 107.771 29.1597 108.26 29.1597C109.149 29.1597 109.581 29.6425 109.581 30.462V32.2917H108.895L108.901 32.298ZM108.92 31.002C108.743 30.9321 108.501 30.8813 108.228 30.8813C107.796 30.8813 107.535 31.0655 107.535 31.3578V31.3705C107.535 31.6627 107.79 31.8279 108.12 31.8279C108.577 31.8279 108.92 31.5674 108.92 31.1799V31.002Z" fill="white"/>
<path d="M110.407 29.2042H111.1V29.687C111.297 29.3947 111.57 29.1406 112.04 29.1406C112.72 29.1406 113.114 29.6107 113.114 30.3286V32.298H112.421V30.5446C112.421 30.0618 112.186 29.7886 111.779 29.7886C111.373 29.7886 111.1 30.0745 111.1 30.5573V32.3044H110.407V29.2169V29.2042Z" fill="white"/>
<path d="M113.774 30.767V30.7543C113.774 29.8776 114.435 29.1406 115.337 29.1406C115.909 29.1406 116.258 29.3566 116.538 29.6743L116.112 30.1507C115.902 29.922 115.68 29.7632 115.331 29.7632C114.829 29.7632 114.467 30.2079 114.467 30.7479V30.7606C114.467 31.3133 114.835 31.758 115.369 31.758C115.693 31.758 115.934 31.5992 116.15 31.3705L116.569 31.7898C116.271 32.1265 115.928 32.3679 115.337 32.3679C114.441 32.3679 113.781 31.65 113.781 30.7733L113.774 30.767Z" fill="white"/>
<path d="M117.097 33.0667L117.332 32.5394C117.459 32.6093 117.592 32.6537 117.738 32.6537C117.935 32.6537 118.05 32.5648 118.164 32.298L116.912 29.2104H117.649L118.507 31.5038L119.288 29.2104H120.006L118.812 32.3869C118.57 33.0158 118.304 33.2509 117.821 33.2509C117.529 33.2509 117.319 33.181 117.109 33.0667H117.097Z" fill="white"/>
<path d="M79.3669 38.3272L79.7862 37.8126C80.1674 38.1493 80.5486 38.3462 81.0441 38.3462C81.4761 38.3462 81.7493 38.1429 81.7493 37.8316V37.8189C81.7493 37.5267 81.5905 37.3679 80.8472 37.19C79.9959 36.9803 79.5194 36.7199 79.5194 35.9639V35.9512C79.5194 35.246 80.0912 34.7632 80.8789 34.7632C81.457 34.7632 81.9208 34.9474 82.3274 35.2778L81.9526 35.8241C81.5905 35.5509 81.2347 35.4048 80.8726 35.4048C80.4596 35.4048 80.2246 35.6208 80.2246 35.8876V35.9004C80.2246 36.218 80.4088 36.3578 81.1712 36.542C82.0161 36.7516 82.4545 37.0629 82.4545 37.7427V37.7554C82.4545 38.5241 81.87 38.9815 81.0314 38.9815C80.4215 38.9815 79.8434 38.7655 79.3669 38.3272Z" fill="white"/>
<path d="M83.0325 37.3871V37.3744C83.0325 36.4913 83.6423 35.7671 84.5 35.7671C85.4593 35.7671 85.9421 36.5421 85.9421 37.4316C85.9421 37.4951 85.9421 37.5586 85.9294 37.6285H83.7186C83.7948 38.1304 84.1379 38.4099 84.5826 38.4099C84.9193 38.4099 85.1607 38.2828 85.3958 38.0414L85.8023 38.4099C85.5165 38.7593 85.1226 38.988 84.5699 38.988C83.6995 38.988 83.0261 38.34 83.0261 37.3871H83.0325ZM85.2623 37.1584C85.2179 36.701 84.9574 36.3452 84.5 36.3452C84.0807 36.3452 83.7821 36.6819 83.7186 37.1584H85.2623Z" fill="white"/>
<path d="M86.6411 35.8306H87.3336V36.5294C87.5242 36.0656 87.8672 35.748 88.4009 35.7734V36.523H88.3627C87.7592 36.523 87.3399 36.9296 87.3399 37.7491V38.9244H86.6475V35.8369L86.6411 35.8306Z" fill="white"/>
<path d="M88.7122 35.8306H89.4554L90.2623 38.0986L91.0754 35.8306H91.7997L90.5672 38.9435H89.9446L88.7058 35.8306H88.7122Z" fill="white"/>
<path d="M92.3967 34.687H93.14V35.3604H92.3967V34.687ZM92.4221 35.8369H93.1146V38.9244H92.4221V35.8369Z" fill="white"/>
<path d="M93.8516 37.3934V37.3807C93.8516 36.504 94.5123 35.7671 95.4144 35.7671C95.9861 35.7671 96.3356 35.9831 96.6151 36.3007L96.1894 36.7772C95.9798 36.5485 95.7574 36.3897 95.408 36.3897C94.9061 36.3897 94.544 36.8344 94.544 37.3744V37.3871C94.544 37.9398 94.9125 38.3845 95.4461 38.3845C95.7701 38.3845 96.0116 38.2257 96.2276 37.997L96.6468 38.4163C96.3483 38.753 96.0052 38.9944 95.4144 38.9944C94.5186 38.9944 93.8579 38.2765 93.8579 37.3998L93.8516 37.3934Z" fill="white"/>
<path d="M97.104 37.3871V37.3744C97.104 36.4913 97.7139 35.7671 98.5715 35.7671C99.5308 35.7671 100.014 36.5421 100.014 37.4316C100.014 37.4951 100.014 37.5586 100.001 37.6285H97.7901C97.8664 38.1304 98.2094 38.4099 98.6541 38.4099C98.9908 38.4099 99.2322 38.2828 99.4673 38.0414L99.8739 38.4099C99.588 38.7593 99.1941 38.988 98.6414 38.988C97.7711 38.988 97.0977 38.34 97.0977 37.3871H97.104ZM99.3339 37.1584C99.2894 36.701 99.0289 36.3452 98.5715 36.3452C98.1522 36.3452 97.8536 36.6819 97.7901 37.1584H99.3339Z" fill="white"/>
<path d="M100.465 38.5179L100.77 38.0351C101.094 38.2892 101.45 38.4162 101.754 38.4162C102.059 38.4162 102.225 38.2892 102.225 38.0795V38.0668C102.225 37.8254 101.907 37.7428 101.551 37.6348C101.106 37.5078 100.611 37.3172 100.611 36.7264V36.7137C100.611 36.1292 101.081 35.7734 101.685 35.7734C102.059 35.7734 102.472 35.9068 102.79 36.1228L102.517 36.6247C102.225 36.4405 101.92 36.3325 101.666 36.3325C101.399 36.3325 101.246 36.4596 101.246 36.6438V36.6565C101.246 36.8788 101.57 36.9741 101.926 37.0885C102.364 37.2283 102.86 37.4315 102.86 37.9906V38.0033C102.86 38.6513 102.371 38.9753 101.742 38.9753C101.316 38.9753 100.84 38.8165 100.465 38.5115V38.5179Z" fill="white"/>
<path d="M15.4439 14.2876H0.260498V17.7372H15.4439V14.2876Z" fill="#00AC96"/>
<path d="M15.4439 0.158691H0.260498V3.60832H15.4439V0.158691Z" fill="#00AC96"/>
<path d="M15.4439 7.22314H0.260498V10.6728H15.4439V7.22314Z" fill="#00AC96"/>
<path d="M74.1637 8.94478V17.769H70.7141V8.94478C70.7141 5.98433 68.3127 3.58293 65.3523 3.58293C62.3918 3.58293 59.9904 5.98433 59.9904 8.94478C59.9904 11.9052 62.3918 14.3066 65.3523 14.3066V17.7563C60.4859 17.7563 56.5408 13.8111 56.5408 8.94478C56.5408 4.07845 60.4859 0.133301 65.3523 0.133301C70.2186 0.133301 74.1637 4.07845 74.1637 8.94478Z" fill="white"/>
<path d="M20.5071 17.6991V7.76319C20.5071 3.5131 23.9504 0.0698242 28.2004 0.0698242H31.7263V3.51945H28.2004C25.8562 3.51945 23.9567 5.41897 23.9567 7.76319V17.6991H20.5071Z" fill="white"/>
<path d="M40.3411 11.7211V12.0388C40.3411 12.8519 41.618 14.4783 43.9622 14.4783C46.478 14.4783 47.5834 13.0552 47.5834 12.0388C47.5834 10.7999 42.6345 10.4188 41.6815 10.2091C39.3437 9.69454 37.0757 8.54466 37.0757 5.69221C37.0757 2.0647 40.6079 -0.00634766 43.9559 -0.00634766C47.1196 -0.00634766 50.8361 2.40776 50.8361 5.69221V6.00985H47.577V5.69221C47.577 4.91715 46.1222 3.25269 43.9559 3.25269C41.5227 3.25269 40.3347 4.63763 40.3347 5.69221C40.3347 7.17243 45.1375 7.46467 46.2175 7.68702C48.4982 8.15713 50.8424 9.21807 50.8424 12.0388C50.8424 15.5329 47.5071 17.7373 43.9622 17.7373C40.4173 17.7373 37.082 15.2851 37.082 12.0388V11.7211H40.3411Z" fill="white"/>
</g>
<defs>
<clipPath id="clip0_80_24444">
<rect width="120" height="45.6266" fill="white"/>
</clipPath>
</defs>
</svg>
