<svg width="120" height="46" viewBox="0 0 120 46" fill="none" xmlns="http://www.w3.org/2000/svg">
<g clip-path="url(#clip0_80_854)">
<path d="M50.2894 25.7381V34.6258C50.2894 35.9472 49.2157 37.0209 47.8943 37.0209C46.5729 37.0209 45.4993 35.9472 45.4993 34.6258V25.7381H42.1322V34.6258C42.1322 35.9472 41.0586 37.0209 39.7372 37.0209C38.4158 37.0209 37.4375 36.0362 37.3485 34.791C37.3866 34.5178 37.412 34.2383 37.412 33.9524V25.7381H37.3422H33.9751V34.6004C33.6765 35.979 32.4504 37.0209 30.9765 37.0209H26.79C25.1001 37.0209 23.7215 35.6423 23.7215 33.9524V21.3482H20.3545V33.9524C20.3545 37.4973 23.2387 40.3879 26.79 40.3879H30.9765C32.7427 40.3879 34.3372 39.6764 35.4998 38.5201C36.5544 39.6637 38.06 40.3879 39.7372 40.3879C41.2683 40.3879 42.7421 39.7717 43.8158 38.6917C44.8958 39.7717 46.3633 40.3879 47.8943 40.3879C51.0708 40.3879 53.6564 37.8023 53.6564 34.6258V25.7381H50.2894Z" fill="#282660"/>
<path d="M10.9397 37.2432H8.84324C6.84843 37.2432 5.22844 35.6232 5.22844 33.6284C5.22844 31.6336 6.84843 30.0136 8.84324 30.0136C10.8381 30.0136 12.458 31.6336 12.458 33.6284V33.9397H15.6091V33.6284C15.6091 29.8993 12.5724 26.8626 8.84324 26.8626C5.11409 26.8626 2.0774 29.8993 2.0774 33.6284C2.0774 34.9308 2.44587 36.1759 3.13198 37.2432H0V40.3942H15.6154V37.2432H10.9397Z" fill="#282660"/>
<path d="M62.3918 25.8588V38.3105C62.3918 40.5531 60.5685 42.3764 58.3259 42.3764H58.0146V45.8133H58.3259C62.4617 45.8133 65.8287 42.4462 65.8287 38.3105V25.8588H62.3918Z" fill="#282660"/>
<path d="M74.2211 21.1767H70.7842V39.13H74.2211V21.1767Z" fill="#292561"/>
<path d="M74.0749 43.3738H72.6265C72.0166 43.3738 71.5147 42.8782 71.5147 42.262C71.5147 41.6458 72.0102 41.1502 72.6265 41.1502C73.2363 41.1502 73.7382 41.6458 73.7382 42.262H74.4498C74.4498 41.2519 73.6302 40.4387 72.6265 40.4387C71.6227 40.4387 70.8032 41.2582 70.8032 42.262C70.8032 42.6813 70.9493 43.0625 71.1907 43.3738H70.5491V44.0916H74.4561V43.3738H74.0749Z" fill="#292561"/>
<path d="M80.6121 22.4282H79.3479V21.7612H82.5815V22.4282H81.3173V25.8588H80.6121V22.4282Z" fill="#757C8E"/>
<path d="M83.2485 22.7649H83.941V23.4638C84.1316 23 84.4746 22.6824 85.0083 22.7078V23.4574H84.9702C84.3667 23.4574 83.9474 23.864 83.9474 24.6835V25.8588H83.2549V22.7713L83.2485 22.7649Z" fill="#757C8E"/>
<path d="M87.4416 25.8588V25.4776C87.2383 25.7318 86.9207 25.9223 86.4696 25.9223C85.8979 25.9223 85.396 25.5856 85.396 24.9694V24.9567C85.396 24.2706 85.9169 23.9466 86.6158 23.9466C86.9779 23.9466 87.2129 23.9974 87.448 24.0736V24.0165C87.448 23.5908 87.1875 23.3558 86.7047 23.3558C86.368 23.3558 86.1202 23.432 85.8471 23.5464L85.6565 22.9809C85.9868 22.8285 86.3108 22.7205 86.8 22.7205C87.6894 22.7205 88.1214 23.2033 88.1214 24.0228V25.8525H87.4353L87.4416 25.8588ZM87.4607 24.5628C87.2828 24.4929 87.0414 24.4421 86.7682 24.4421C86.3362 24.4421 86.0758 24.6263 86.0758 24.9186V24.9313C86.0758 25.2235 86.3299 25.3887 86.6602 25.3887C87.1176 25.3887 87.4607 25.1282 87.4607 24.7407V24.5628Z" fill="#757C8E"/>
<path d="M88.9534 21.6214H89.6967V22.2948H88.9534V21.6214ZM88.9788 22.7713H89.6712V25.8588H88.9788V22.7713Z" fill="#757C8E"/>
<path d="M90.5732 22.7649H91.2657V23.2478C91.4626 22.9555 91.7358 22.7014 92.2059 22.7014C92.8857 22.7014 93.2796 23.1715 93.2796 23.8894V25.8588H92.5871V24.1054C92.5871 23.6226 92.352 23.3494 91.9455 23.3494C91.5389 23.3494 91.2657 23.6353 91.2657 24.1181V25.8652H90.5732V22.7777V22.7649Z" fill="#757C8E"/>
<path d="M94.1184 21.6214H94.8617V22.2948H94.1184V21.6214ZM94.1438 22.7713H94.8363V25.8588H94.1438V22.7713Z" fill="#757C8E"/>
<path d="M95.7383 22.7649H96.4307V23.2478C96.6277 22.9555 96.9009 22.7014 97.371 22.7014C98.0507 22.7014 98.4446 23.1715 98.4446 23.8894V25.8588H97.7522V24.1054C97.7522 23.6226 97.5171 23.3494 97.1105 23.3494C96.7039 23.3494 96.4307 23.6353 96.4307 24.1181V25.8652H95.7383V22.7777V22.7649Z" fill="#757C8E"/>
<path d="M99.2643 26.4369L99.5184 25.9033C99.836 26.1066 100.179 26.2336 100.592 26.2336C101.208 26.2336 101.545 25.9033 101.545 25.287V25.0456C101.297 25.3823 100.98 25.611 100.484 25.611C99.7789 25.611 99.1182 25.0711 99.1182 24.1626V24.1499C99.1182 23.2351 99.7852 22.7014 100.484 22.7014C100.992 22.7014 101.304 22.9428 101.539 23.2287V22.7649H102.231V25.2235C102.231 25.7445 102.098 26.132 101.85 26.3861C101.577 26.6656 101.157 26.799 100.611 26.799C100.116 26.799 99.6518 26.672 99.2643 26.4306V26.4369ZM101.551 24.1689V24.1562C101.551 23.648 101.145 23.3049 100.668 23.3049C100.192 23.3049 99.8106 23.6416 99.8106 24.1562V24.1689C99.8106 24.6772 100.192 25.0202 100.668 25.0202C101.145 25.0202 101.551 24.6708 101.551 24.1689Z" fill="#757C8E"/>
<path d="M81.87 32.0084C81.5269 32.3388 81.1267 32.5421 80.6439 32.5421C79.9006 32.5421 79.3479 32.0783 79.3479 31.3731V31.3604C79.3479 30.8331 79.6528 30.452 80.1992 30.2105C79.9705 29.912 79.8688 29.6515 79.8688 29.3593V29.3466C79.8688 28.7939 80.3008 28.3174 81.0124 28.3174C81.6476 28.3174 82.0733 28.7557 82.0733 29.3084V29.3211C82.0733 29.8611 81.7239 30.1788 81.1966 30.3884L81.8827 31.1C82.0352 30.8649 82.1813 30.5981 82.3084 30.3122L82.8356 30.5981C82.6768 30.9284 82.4989 31.2461 82.2956 31.532L82.9246 32.1863L82.4037 32.5675L81.8764 32.0084H81.87ZM81.4698 31.5891L80.5804 30.6616C80.2119 30.8268 80.0531 31.0745 80.0531 31.3414V31.3541C80.0531 31.6971 80.3326 31.9512 80.7201 31.9512C80.9933 31.9512 81.2474 31.8178 81.4698 31.5955V31.5891ZM81.4444 29.3593V29.3466C81.4444 29.0734 81.2538 28.8828 80.987 28.8828C80.7011 28.8828 80.5168 29.0861 80.5168 29.372V29.3847C80.5168 29.588 80.5994 29.7404 80.8218 29.9945C81.2347 29.8421 81.4507 29.6515 81.4507 29.3593H81.4444Z" fill="#757C8E"/>
<path d="M85.1353 30.4456V30.4329C85.1353 29.2703 85.9865 28.3174 87.1936 28.3174C87.9305 28.3174 88.3752 28.5779 88.7564 28.9527L88.3054 29.4863C87.9877 29.1814 87.6447 28.9781 87.1872 28.9781C86.4249 28.9781 85.8722 29.6197 85.8722 30.4265V30.4393C85.8722 31.2397 86.4249 31.8941 87.1872 31.8941C87.6764 31.8941 87.9877 31.6908 88.3308 31.3604L88.7818 31.8305C88.3689 32.2752 87.9115 32.5548 87.1618 32.5548C85.9993 32.5548 85.1353 31.6272 85.1353 30.4456Z" fill="#757C8E"/>
<path d="M89.2712 30.9538V30.9411C89.2712 30.0581 89.9574 29.3275 90.8785 29.3275C91.7997 29.3275 92.4795 30.0454 92.4795 30.9284V30.9411C92.4795 31.8178 91.7933 32.5484 90.8658 32.5484C89.9383 32.5484 89.2712 31.8305 89.2712 30.9538ZM91.787 30.9538V30.9411C91.787 30.3948 91.4058 29.9437 90.8658 29.9437C90.3258 29.9437 89.9574 30.3884 89.9574 30.9284V30.9411C89.9574 31.4811 90.3385 31.9385 90.8722 31.9385C91.4058 31.9385 91.787 31.4875 91.787 30.9538Z" fill="#757C8E"/>
<path d="M93.1782 29.391H93.8707V29.8738C94.0676 29.5816 94.3408 29.3275 94.8109 29.3275C95.4907 29.3275 95.8846 29.7976 95.8846 30.5155V32.4849H95.1921V30.7315C95.1921 30.2487 94.957 29.9755 94.5505 29.9755C94.1439 29.9755 93.8707 30.2614 93.8707 30.7442V32.4912H93.1782V29.4037V29.391Z" fill="#757C8E"/>
<path d="M96.4688 32.0783L96.7737 31.5955C97.0977 31.8496 97.4534 31.9767 97.7584 31.9767C98.0633 31.9767 98.2285 31.8496 98.2285 31.6399V31.6272C98.2285 31.3858 97.9109 31.3032 97.5551 31.1952C97.1104 31.0682 96.6149 30.8776 96.6149 30.2868V30.2741C96.6149 29.6896 97.085 29.3338 97.6885 29.3338C98.0633 29.3338 98.4763 29.4673 98.7939 29.6833L98.5207 30.1851C98.2285 30.0009 97.9236 29.8929 97.6694 29.8929C97.4026 29.8929 97.2502 30.02 97.2502 30.2042V30.2169C97.2502 30.4393 97.5741 30.5345 97.9299 30.6489C98.3683 30.7887 98.8638 30.992 98.8638 31.551V31.5637C98.8638 32.2117 98.3746 32.5357 97.7457 32.5357C97.32 32.5357 96.8436 32.3769 96.4688 32.0719V32.0783Z" fill="#757C8E"/>
<path d="M99.531 31.3604V29.391H100.223V31.1444C100.223 31.6272 100.459 31.9004 100.865 31.9004C101.272 31.9004 101.545 31.6145 101.545 31.1317V29.3847H102.237V32.4722H101.545V31.9894C101.348 32.2816 101.075 32.5357 100.605 32.5357C99.9249 32.5357 99.531 32.0656 99.531 31.3477V31.3604Z" fill="#757C8E"/>
<path d="M103.133 28.2094H103.826V32.4785H103.133V28.2094Z" fill="#757C8E"/>
<path d="M104.868 31.6272V30.0009H104.486V29.391H104.868V28.5397H105.56V29.391H106.367V30.0009H105.56V31.5192C105.56 31.7924 105.7 31.9068 105.928 31.9068C106.081 31.9068 106.221 31.8687 106.354 31.7988V32.3769C106.183 32.4785 105.992 32.5357 105.731 32.5357C105.223 32.5357 104.868 32.307 104.868 31.6272Z" fill="#757C8E"/>
<path d="M108.901 32.4849V32.1037C108.698 32.3578 108.38 32.5484 107.929 32.5484C107.358 32.5484 106.856 32.2117 106.856 31.5955V31.5828C106.856 30.8967 107.377 30.5727 108.075 30.5727C108.438 30.5727 108.673 30.6235 108.908 30.6997V30.6425C108.908 30.2169 108.647 29.9818 108.164 29.9818C107.828 29.9818 107.58 30.0581 107.307 30.1724L107.116 29.607C107.447 29.4545 107.771 29.3465 108.26 29.3465C109.149 29.3465 109.581 29.8294 109.581 30.6489V32.4785H108.895L108.901 32.4849ZM108.92 31.1889C108.743 31.119 108.501 31.0682 108.228 31.0682C107.796 31.0682 107.535 31.2524 107.535 31.5447V31.5574C107.535 31.8496 107.79 32.0148 108.12 32.0148C108.577 32.0148 108.92 31.7543 108.92 31.3668V31.1889Z" fill="#757C8E"/>
<path d="M110.407 29.391H111.1V29.8738C111.297 29.5816 111.57 29.3275 112.04 29.3275C112.72 29.3275 113.114 29.7976 113.114 30.5155V32.4849H112.421V30.7315C112.421 30.2487 112.186 29.9755 111.779 29.9755C111.373 29.9755 111.1 30.2614 111.1 30.7442V32.4912H110.407V29.4037V29.391Z" fill="#757C8E"/>
<path d="M113.774 30.9538V30.9411C113.774 30.0644 114.435 29.3275 115.337 29.3275C115.909 29.3275 116.258 29.5435 116.538 29.8611L116.112 30.3376C115.902 30.1089 115.68 29.9501 115.331 29.9501C114.829 29.9501 114.467 30.3948 114.467 30.9348V30.9475C114.467 31.5002 114.835 31.9449 115.369 31.9449C115.693 31.9449 115.934 31.7861 116.15 31.5574L116.569 31.9767C116.271 32.3134 115.928 32.5548 115.337 32.5548C114.441 32.5548 113.781 31.8369 113.781 30.9602L113.774 30.9538Z" fill="#757C8E"/>
<path d="M117.097 33.2536L117.332 32.7263C117.459 32.7962 117.592 32.8407 117.738 32.8407C117.935 32.8407 118.05 32.7517 118.164 32.4849L116.912 29.3974H117.649L118.507 31.6908L119.288 29.3974H120.006L118.812 32.5738C118.57 33.2028 118.304 33.4378 117.821 33.4378C117.529 33.4378 117.319 33.3679 117.109 33.2536H117.097Z" fill="#757C8E"/>
<path d="M79.3669 38.5138L79.7862 37.9992C80.1674 38.3359 80.5486 38.5329 81.0441 38.5329C81.4761 38.5329 81.7493 38.3296 81.7493 38.0183V38.0056C81.7493 37.7133 81.5905 37.5545 80.8472 37.3766C79.9959 37.167 79.5194 36.9065 79.5194 36.1505V36.1378C79.5194 35.4326 80.0912 34.9498 80.8789 34.9498C81.457 34.9498 81.9208 35.134 82.3274 35.4644L81.9526 36.0107C81.5905 35.7376 81.2347 35.5915 80.8726 35.5915C80.4596 35.5915 80.2246 35.8075 80.2246 36.0743V36.087C80.2246 36.4046 80.4088 36.5444 81.1712 36.7286C82.0161 36.9383 82.4545 37.2496 82.4545 37.9293V37.942C82.4545 38.7107 81.87 39.1681 81.0314 39.1681C80.4215 39.1681 79.8434 38.9521 79.3669 38.5138Z" fill="#757C8E"/>
<path d="M83.0325 37.5736V37.5609C83.0325 36.6778 83.6423 35.9536 84.5 35.9536C85.4593 35.9536 85.9421 36.7286 85.9421 37.618C85.9421 37.6816 85.9421 37.7451 85.9294 37.815H83.7186C83.7948 38.3169 84.1379 38.5964 84.5826 38.5964C84.9193 38.5964 85.1607 38.4693 85.3958 38.2279L85.8023 38.5964C85.5165 38.9458 85.1226 39.1745 84.5699 39.1745C83.6995 39.1745 83.0261 38.5265 83.0261 37.5736H83.0325ZM85.2623 37.3449C85.2179 36.8875 84.9574 36.5317 84.5 36.5317C84.0807 36.5317 83.7821 36.8684 83.7186 37.3449H85.2623Z" fill="#757C8E"/>
<path d="M86.6411 36.0171H87.3336V36.7159C87.5242 36.2522 87.8672 35.9345 88.4009 35.9599V36.7096H88.3627C87.7592 36.7096 87.3399 37.1162 87.3399 37.9357V39.111H86.6475V36.0235L86.6411 36.0171Z" fill="#757C8E"/>
<path d="M88.7122 36.0171H89.4554L90.2623 38.2851L91.0754 36.0171H91.7997L90.5672 39.13H89.9446L88.7058 36.0171H88.7122Z" fill="#757C8E"/>
<path d="M92.3967 34.8736H93.14V35.547H92.3967V34.8736ZM92.4221 36.0235H93.1146V39.111H92.4221V36.0235Z" fill="#757C8E"/>
<path d="M93.8516 37.5799V37.5672C93.8516 36.6905 94.5123 35.9536 95.4144 35.9536C95.9861 35.9536 96.3356 36.1696 96.6151 36.4872L96.1894 36.9637C95.9798 36.735 95.7574 36.5762 95.408 36.5762C94.9061 36.5762 94.544 37.0209 94.544 37.5609V37.5736C94.544 38.1263 94.9125 38.571 95.4461 38.571C95.7701 38.571 96.0116 38.4122 96.2276 38.1835L96.6468 38.6027C96.3483 38.9394 96.0052 39.1809 95.4144 39.1809C94.5186 39.1809 93.8579 38.463 93.8579 37.5863L93.8516 37.5799Z" fill="#757C8E"/>
<path d="M97.104 37.5736V37.5609C97.104 36.6778 97.7139 35.9536 98.5715 35.9536C99.5308 35.9536 100.014 36.7286 100.014 37.618C100.014 37.6816 100.014 37.7451 100.001 37.815H97.7901C97.8664 38.3169 98.2094 38.5964 98.6541 38.5964C98.9908 38.5964 99.2322 38.4693 99.4673 38.2279L99.8739 38.5964C99.588 38.9458 99.1941 39.1745 98.6414 39.1745C97.7711 39.1745 97.0977 38.5265 97.0977 37.5736H97.104ZM99.3339 37.3449C99.2894 36.8875 99.0289 36.5317 98.5715 36.5317C98.1522 36.5317 97.8536 36.8684 97.7901 37.3449H99.3339Z" fill="#757C8E"/>
<path d="M100.465 38.7044L100.77 38.2216C101.094 38.4757 101.45 38.6027 101.754 38.6027C102.059 38.6027 102.225 38.4757 102.225 38.266V38.2533C102.225 38.0119 101.907 37.9293 101.551 37.8213C101.106 37.6943 100.611 37.5037 100.611 36.9129V36.9002C100.611 36.3157 101.081 35.9599 101.685 35.9599C102.059 35.9599 102.472 36.0933 102.79 36.3093L102.517 36.8112C102.225 36.627 101.92 36.519 101.666 36.519C101.399 36.519 101.246 36.646 101.246 36.8303V36.843C101.246 37.0653 101.57 37.1606 101.926 37.275C102.364 37.4147 102.86 37.618 102.86 38.1771V38.1898C102.86 38.8378 102.371 39.1618 101.742 39.1618C101.316 39.1618 100.84 39.003 100.465 38.698V38.7044Z" fill="#757C8E"/>
<path d="M15.4439 14.4744H0.260498V17.924H15.4439V14.4744Z" fill="#00AC96"/>
<path d="M15.4439 0.345547H0.260498V3.79517H15.4439V0.345547Z" fill="#00AC96"/>
<path d="M15.4439 7.40997H0.260498V10.8596H15.4439V7.40997Z" fill="#00AC96"/>
<path d="M74.1637 9.13161V17.9558H70.7141V9.13161C70.7141 6.17116 68.3127 3.76976 65.3523 3.76976C62.3918 3.76976 59.9904 6.17116 59.9904 9.13161C59.9904 12.0921 62.3918 14.4935 65.3523 14.4935V17.9431C60.4859 17.9431 56.5408 13.9979 56.5408 9.13161C56.5408 4.26529 60.4859 0.320133 65.3523 0.320133C70.2186 0.320133 74.1637 4.26529 74.1637 9.13161Z" fill="#292561"/>
<path d="M20.5071 17.8859V7.94997C20.5071 3.69988 23.9504 0.256603 28.2004 0.256603H31.7263V3.70623H28.2004C25.8562 3.70623 23.9567 5.60575 23.9567 7.94997V17.8859H20.5071Z" fill="#292561"/>
<path d="M40.3411 11.9078V12.2255C40.3411 13.0386 41.618 14.665 43.9622 14.665C46.478 14.665 47.5834 13.2419 47.5834 12.2255C47.5834 10.9867 42.6345 10.6055 41.6815 10.3958C39.3437 9.88125 37.0757 8.73138 37.0757 5.87892C37.0757 2.25141 40.6079 0.180367 43.9559 0.180367C47.1196 0.180367 50.8361 2.59447 50.8361 5.87892V6.19657H47.577V5.87892C47.577 5.10387 46.1222 3.43941 43.9559 3.43941C41.5227 3.43941 40.3347 4.82434 40.3347 5.87892C40.3347 7.35915 45.1375 7.65138 46.2175 7.87373C48.4982 8.34385 50.8424 9.40478 50.8424 12.2255C50.8424 15.7196 47.5071 17.924 43.9622 17.924C40.4173 17.924 37.082 15.4718 37.082 12.2255V11.9078H40.3411Z" fill="#292561"/>
</g>
<defs>
<clipPath id="clip0_80_854">
<rect width="120" height="45.6266" fill="white" transform="translate(0 0.186722)"/>
</clipPath>
</defs>
</svg>
